<?xml version="1.0" encoding="utf-8"?>
<!-- Generator: Adobe Illustrator 22.0.1, SVG Export Plug-In . SVG Version: 6.00 Build 0)  -->
<svg version="1.1" id="Layer_1" xmlns="http://www.w3.org/2000/svg" xmlns:xlink="http://www.w3.org/1999/xlink" x="0px" y="0px"
	 viewBox="0 0 193 44.7" style="enable-background:new 0 0 193 44.7;" xml:space="preserve">
<style type="text/css">
	.st0{fill:#F2F2F2;}
</style>
<g>
	<g>
		<g>
			<g>
				<path class="st0" d="M42.5,31c-0.1,0-0.1,0-0.2-0.1c-0.1-0.1-0.1-0.1-0.1-0.2v-18c0-0.1,0-0.1,0.1-0.1c0.1,0,0.1-0.1,0.2-0.1
					h2.3c0.1,0,0.1,0,0.2,0.1c0,0,0.1,0.1,0.1,0.2v15.5h6.5c0.1,0,0.1,0,0.2,0.1c0.1,0.1,0.1,0.1,0.1,0.2v2.2c0,0.1,0,0.1-0.1,0.2
					C51.6,31,51.6,31,51.5,31H42.5z"/>
				<path class="st0" d="M59.2,31c-0.8,0-1.5-0.2-2.1-0.5c-0.6-0.3-1.2-0.8-1.6-1.3c-0.3-0.4-0.6-0.9-0.8-1.4
					c-0.2-0.5-0.3-1-0.3-1.6v-8.7c0-0.5,0.1-1.1,0.3-1.6c0.2-0.5,0.4-1,0.8-1.4c0.4-0.5,1-1,1.6-1.3c0.6-0.3,1.4-0.5,2.1-0.5
					c0.8,0,1.5,0.2,2.1,0.5c0.6,0.3,1.2,0.8,1.6,1.3c0.3,0.4,0.6,0.9,0.8,1.4c0.2,0.5,0.3,1,0.3,1.6v8.7c0,0.5-0.1,1.1-0.3,1.6
					c-0.2,0.5-0.4,1-0.8,1.4c-0.4,0.5-1,1-1.6,1.3C60.6,30.9,59.9,31,59.2,31z M59.2,15.6c-0.6,0-1.1,0.2-1.5,0.6
					c-0.4,0.4-0.6,0.9-0.6,1.4v8.7c0,0.6,0.2,1,0.6,1.4c0.4,0.4,0.9,0.6,1.5,0.6c0.6,0,1-0.2,1.4-0.6c0.4-0.4,0.6-0.9,0.6-1.4v-8.7
					c0-0.6-0.2-1-0.6-1.4C60.2,15.8,59.7,15.6,59.2,15.6z"/>
				<path class="st0" d="M70.5,31.1c-0.1,0-0.1,0-0.2-0.1c0,0-0.1-0.1-0.1-0.2V15.6h-3.2c-0.1,0-0.1,0-0.2-0.1
					c-0.1-0.1-0.1-0.1-0.1-0.2V13c0-0.1,0-0.1,0.1-0.1c0.1,0,0.1-0.1,0.2-0.1h9.1c0.1,0,0.1,0,0.2,0.1c0,0,0.1,0.1,0.1,0.1v2.3
					c0,0.1,0,0.1-0.1,0.2c-0.1,0.1-0.1,0.1-0.2,0.1H73v15.3c0,0.1,0,0.1-0.1,0.2c0,0-0.1,0.1-0.2,0.1H70.5z"/>
				<path class="st0" d="M84.7,31c-0.7,0-1.3-0.1-1.9-0.4c-0.6-0.3-1.1-0.6-1.5-1c-0.4-0.4-0.8-0.9-1-1.5c-0.3-0.6-0.4-1.2-0.4-1.9
					V13c0-0.1,0-0.1,0.1-0.1c0.1,0,0.1-0.1,0.2-0.1h2.3c0.1,0,0.1,0,0.2,0.1c0,0,0.1,0.1,0.1,0.2v13.2c0,0.6,0.2,1,0.6,1.4
					c0.4,0.4,0.9,0.6,1.5,0.6c0.6,0,1-0.2,1.4-0.6c0.4-0.4,0.6-0.9,0.6-1.4V13c0-0.1,0-0.1,0.1-0.1c0.1,0,0.1-0.1,0.2-0.1h2.3
					c0.1,0,0.1,0,0.1,0c0,0,0.1,0.1,0.1,0.2l0,13.3c0,0.7-0.1,1.3-0.4,1.9c-0.3,0.6-0.6,1.1-1,1.5c-0.4,0.4-0.9,0.8-1.5,1
					C86,30.9,85.4,31,84.7,31z"/>
				<path class="st0" d="M97.9,31c-0.3,0-0.6,0-0.9-0.1c-0.3-0.1-0.6-0.1-0.8-0.2c-0.9-0.3-1.6-0.9-2.2-1.7
					c-0.6-0.8-0.9-1.7-0.9-2.7v-1.1c0-0.1,0-0.1,0.1-0.2c0,0,0.1-0.1,0.2-0.1h2.3c0.1,0,0.1,0,0.2,0.1c0,0,0.1,0.1,0.1,0.1v1.1
					c0,0.6,0.2,1,0.6,1.4c0.4,0.4,0.9,0.6,1.4,0.6c0.6,0,1.1-0.2,1.4-0.6c0.4-0.4,0.6-0.9,0.6-1.4v-0.9c0-0.5-0.2-1-0.6-1.4
					c-0.4-0.4-0.9-0.6-1.4-0.6c-0.6,0-1.2-0.1-1.7-0.3c-0.4-0.1-0.7-0.3-1-0.5c-0.3-0.2-0.6-0.4-0.8-0.7c-0.4-0.4-0.7-0.9-0.9-1.5
					c-0.2-0.5-0.3-1.1-0.3-1.8v-1c0-1,0.3-1.9,0.9-2.7c0.6-0.8,1.3-1.4,2.2-1.7c0.5-0.2,1.1-0.3,1.7-0.3c0.6,0,1.2,0.1,1.7,0.3
					c0.9,0.3,1.6,0.9,2.2,1.7c0.6,0.8,0.9,1.7,0.9,2.7v0.9c0,0.1-0.1,0.2-0.2,0.2h-2.3c-0.1,0-0.1,0-0.2-0.1c0,0-0.1-0.1-0.1-0.1
					v-0.8c0-0.5-0.2-1-0.6-1.4c-0.4-0.4-0.9-0.6-1.4-0.6c-0.6,0-1,0.2-1.4,0.6c-0.4,0.4-0.6,0.9-0.6,1.4v1c0,0.6,0.2,1.1,0.6,1.5
					c0.4,0.4,0.9,0.6,1.4,0.6c0.6,0,1.2,0.1,1.7,0.3c0.7,0.3,1.3,0.7,1.8,1.2c0.4,0.4,0.7,0.9,0.9,1.4c0.2,0.6,0.3,1.1,0.3,1.8v0.9
					c0,1-0.3,1.9-0.9,2.7c-0.6,0.8-1.3,1.4-2.2,1.7c-0.3,0.1-0.5,0.2-0.8,0.2C98.5,31,98.2,31,97.9,31z"/>
				<path class="st0" d="M115.3,31.1c-0.3,0-0.6,0-0.9-0.1c-0.3-0.1-0.6-0.1-0.8-0.2c-0.9-0.3-1.6-0.9-2.2-1.7
					c-0.6-0.8-0.9-1.7-0.9-2.7v-1.1l0.1-0.1h2.3l0.2,0.1v1.1c0,0.6,0.2,1.1,0.6,1.5c0.4,0.4,0.9,0.6,1.5,0.6c0.6,0,1.1-0.2,1.5-0.6
					c0.4-0.4,0.6-0.9,0.6-1.5v-0.9c0-0.6-0.2-1.1-0.6-1.5c-0.4-0.4-0.9-0.7-1.5-0.7c-0.6,0-1.2-0.1-1.7-0.3c-0.4-0.1-0.7-0.3-1-0.5
					c-0.3-0.2-0.6-0.4-0.8-0.7c-0.4-0.4-0.7-0.9-0.9-1.5c-0.2-0.5-0.3-1.1-0.3-1.8v-1c0-1,0.3-1.9,0.9-2.7c0.6-0.8,1.3-1.4,2.2-1.7
					c0.5-0.2,1.1-0.3,1.7-0.3c0.6,0,1.2,0.1,1.7,0.3c0.9,0.3,1.6,0.9,2.2,1.7c0.6,0.8,0.9,1.7,0.9,2.7v0.9c0,0.1,0,0.1-0.1,0.1h-2.3
					l-0.2-0.1v-0.9c0-0.6-0.2-1.1-0.6-1.5c-0.4-0.4-0.9-0.7-1.5-0.7c-0.6,0-1.1,0.2-1.5,0.6c-0.4,0.4-0.6,0.9-0.6,1.5v1
					c0,0.6,0.2,1.1,0.6,1.5c0.4,0.4,0.9,0.6,1.5,0.6c0.6,0,1.2,0.1,1.7,0.3c0.7,0.3,1.3,0.7,1.8,1.2c0.4,0.4,0.7,0.9,0.9,1.4
					c0.2,0.5,0.3,1.1,0.3,1.8v0.9c0,1-0.3,1.9-0.9,2.7c-0.6,0.8-1.3,1.4-2.2,1.7c-0.3,0.1-0.5,0.2-0.8,0.2
					C115.9,31,115.6,31.1,115.3,31.1z"/>
				<polygon class="st0" points="123.7,31 123.6,30.9 123.6,12.9 123.7,12.8 133,12.8 133.2,12.9 133.2,15.2 133,15.4 126.2,15.4 
					126.2,21 131.5,21 131.6,21.2 131.6,23.4 131.5,23.6 126.2,23.6 126.2,28.5 133,28.5 133.2,28.6 133.2,30.9 133,31 				"/>
				<path class="st0" d="M143.8,31.1l-0.1-0.1v-5.5c0-0.6-0.2-1.1-0.6-1.5c-0.4-0.4-0.9-0.6-1.5-0.6h-2.2v7.6l-0.2,0.1h-2.3
					c-0.1-0.2-0.2-2.2-0.2-5V14.2c0-0.8,0-1.2,0.1-1.3l5,0c0.2,0,0.5,0,0.7,0.1c0.2,0.1,0.5,0.1,0.7,0.2c0.9,0.3,1.6,0.9,2.2,1.7
					c0.6,0.8,0.9,1.7,0.9,2.7v1c0,0.2,0,0.3,0,0.4l-0.1,0.5c0,0,0,0.1,0,0.1l0,0l0,0.1c0,0,0,0,0,0l-0.1,0.1v0.1l0,0.1l0,0.1
					c0,0,0,0.1,0,0.1l-0.1,0l0,0.1c0,0.1-0.1,0.1-0.1,0.2l0,0c0,0,0,0,0,0l-0.1,0.1l0,0.2c0,0,0,0,0,0c0,0,0,0,0-0.1l0,0l-0.1,0.1
					l-0.2,0.3l0,0l-0.1,0.1c-0.1,0.2-0.2,0.2-0.2,0.3l-0.4,0.4l0.2,0.2c0.4,0.4,0.7,0.9,0.9,1.4c0.2,0.5,0.3,1.1,0.4,1.7V31
					l-0.2,0.1H143.8z M139.4,20.7h2.1c0.6,0,1.1-0.2,1.5-0.6c0.1-0.1,0.1-0.1,0.2-0.2l0.1-0.1l0.1-0.1c0,0,0,0,0,0c0,0,0,0,0,0
					l0.1-0.1l0,0l0,0v-0.1l0-0.1v-0.1c0-0.1,0-0.1,0.1-0.2l0-0.1l0,0v-1.3c0-0.6-0.2-1.1-0.6-1.5c-0.4-0.4-0.9-0.6-1.5-0.6h-2.1
					V20.7z"/>
				<path class="st0" d="M150.4,31.1l-0.1-0.2v-18l0.1-0.1h2.3l0.2,0.1v15.5h2.1c0.6,0,1.1-0.2,1.5-0.6c0.4-0.4,0.6-0.9,0.7-1.5
					V12.9l0.1-0.1h2.3l0.1,13.6c0,0.5-0.1,1-0.2,1.4c-0.1,0.5-0.4,0.9-0.6,1.3c-0.3,0.4-0.6,0.7-1,1c-0.4,0.3-0.8,0.5-1.2,0.7
					c-0.2,0.1-0.5,0.1-0.7,0.2c-0.2,0.1-0.5,0.1-0.7,0.1H150.4z"/>
				<polygon class="st0" points="164.2,31.1 164,30.9 164,12.9 164.2,12.8 166.5,12.8 166.6,12.9 166.6,30.9 166.5,31.1 				"/>
				<path class="st0" d="M175,31c-0.7,0-1.3-0.1-1.9-0.4c-0.6-0.3-1.1-0.6-1.5-1c-0.4-0.4-0.8-0.9-1-1.5c-0.2-0.6-0.4-1.2-0.4-1.8
					v-8.7c0-0.7,0.1-1.3,0.4-1.8c0.3-0.6,0.6-1.1,1-1.5c0.4-0.4,0.9-0.8,1.5-1c0.6-0.2,1.2-0.4,1.9-0.4c0.6,0,1.3,0.1,1.8,0.4
					c0.6,0.3,1.1,0.6,1.5,1c0.4,0.4,0.8,0.9,1,1.5c0.2,0.6,0.4,1.2,0.4,1.8V19l-0.2,0.1h-2.3l-0.1-0.1v-1.4c0-0.6-0.2-1.1-0.6-1.5
					c-0.4-0.4-0.9-0.6-1.5-0.6c-0.6,0-1.1,0.2-1.5,0.6c-0.4,0.4-0.6,0.9-0.6,1.5v8.7c0,0.6,0.2,1.1,0.6,1.5c0.4,0.4,0.9,0.6,1.5,0.6
					c0.6,0,1.1-0.2,1.5-0.6c0.4-0.4,0.6-0.9,0.6-1.5v-0.6l0.1-0.1h2.3l0.2,0.1v0.7c0,0.7-0.1,1.3-0.4,1.8c-0.3,0.6-0.6,1.1-1,1.5
					c-0.4,0.4-0.9,0.8-1.5,1C176.3,30.9,175.7,31,175,31z"/>
				<polygon class="st0" points="183.6,31 183.4,30.9 183.4,12.9 183.6,12.8 192.9,12.8 193,12.9 193,15.2 192.9,15.4 186,15.4 
					186,21 191.3,21 191.5,21.2 191.5,23.4 191.3,23.6 186,23.6 186,28.5 192.9,28.5 193,28.6 193,30.9 192.9,31 				"/>
			</g>
		</g>
		<g>
			<path class="st0" d="M17.5,26c1.4-1.1,2.6-2,3.2-4c0.8,1.6,2.3,2,4.2,2.6l0.4,0.1c0.1,0,0.1,0,0.2,0c0.1,0,0.2,0,0.3-0.1
				c0.1-0.1,0.2-0.3,0.2-0.5v-2.8c0.6,0.3,1.4,0.6,2.4,0.6c0.3,0,0.6-0.3,0.6-0.6v-2.7h1.1c0.3,0,0.6-0.3,0.6-0.6V6
				c0-0.2-0.1-0.3-0.2-0.5c-0.1-0.1-0.3-0.1-0.5-0.1c-1.1,0.3-2,0.6-2.9,0.9c-0.7-1.2-2.3-2.9-2.3-2.9c-0.1-0.1-0.3-0.2-0.5-0.1
				c-1.5,0.4-2.8,0.8-3.3,1c-0.6-0.5-1.3-1.1-2-1.6c-1-0.8-2-1.6-3.1-2.6C15.5,0,15.2,0,15,0.1c-1.1,1-2.1,1.8-3.1,2.6
				c-0.7,0.6-1.4,1.1-2,1.6C9.3,4.1,8,3.7,6.5,3.3c-0.2,0-0.4,0-0.5,0.1c0,0-1.7,1.7-2.3,2.9C2.8,6.1,1.8,5.8,0.7,5.5
				c-0.2-0.1-0.4,0-0.5,0.1C0.1,5.7,0,5.8,0,6v12.2c0,0.3,0.3,0.6,0.6,0.6h1.1v2.7c0,0.3,0.3,0.6,0.6,0.6c1,0,1.8-0.3,2.4-0.6v2.8
				c0,0.2,0.1,0.3,0.2,0.5c0.1,0.1,0.2,0.1,0.3,0.1c0.1,0,0.1,0,0.2,0l0.4-0.1c2-0.6,3.4-1,4.2-2.6c0.6,2,1.8,2.9,3.2,4
				c0.5,0.4,1,0.8,1.6,1.2v6.6H0.6c-0.3,0-0.6,0.3-0.6,0.6C0,34.7,0.3,35,0.6,35h29.6c0.3,0,0.6-0.3,0.6-0.6c0-0.3-0.3-0.6-0.6-0.6
				H15.9v-6.6C16.5,26.7,17,26.3,17.5,26z M24.9,17.6h-3.8c0.1-4.2,0.8-6.5,2.4-8C24.4,11.5,24.9,13.9,24.9,17.6z M21.1,18.7h3.8
				v4.7C22.3,22.6,21.2,22.2,21.1,18.7z M27.9,20.8c-0.9-0.1-1.5-0.6-1.9-0.8v-1.3h1.9V20.8z M29.6,17.6h-3.5
				c-0.1-4-0.6-6.7-1.6-8.8c1.3-0.9,3-1.4,5.1-2.1V17.6z M24.1,4.5C25,5.3,25.6,6.2,26,6.8c-0.8,0.3-1.4,0.6-2.1,1
				c-0.6-1-1.3-1.8-2.1-2.6C22.4,5,23.2,4.7,24.1,4.5z M12.6,3.6c0.8-0.7,1.8-1.4,2.8-2.3c1,0.9,1.9,1.6,2.8,2.3
				c2,1.6,3.7,2.9,4.9,4.9c-1.9,1.6-2.9,4.2-3,9.1h-9.3c-0.1-4.9-1.1-7.4-3-9.1C8.9,6.6,10.5,5.2,12.6,3.6z M7.2,9.6
				c1.6,1.5,2.3,3.8,2.4,8H5.8C5.8,13.9,6.3,11.5,7.2,9.6z M6.6,4.5C7.5,4.7,8.3,5,8.9,5.2C8.1,6,7.4,6.8,6.8,7.8
				c-0.6-0.4-1.3-0.7-2.1-1C5.1,6.2,5.7,5.3,6.6,4.5z M1.1,6.8C3.2,7.4,4.9,8,6.2,8.8c-1,2-1.5,4.7-1.6,8.8H1.1V6.8z M2.8,20.8v-2.1
				h1.9V20C4.3,20.2,3.6,20.7,2.8,20.8z M5.8,23.4v-4.7h3.8C9.5,22.2,8.4,22.6,5.8,23.4z M10.7,18.7H20c-0.1,3.9-1.2,4.8-3.2,6.3
				c-0.4,0.3-0.9,0.7-1.4,1.1c-0.5-0.4-1-0.8-1.4-1.1C11.9,23.5,10.8,22.7,10.7,18.7z"/>
			<path class="st0" d="M21.6,36.4H9.1c-0.3,0-0.6,0.3-0.6,0.6c0,0.3,0.3,0.6,0.6,0.6h12.5c0.3,0,0.6-0.3,0.6-0.6
				C22.2,36.6,21.9,36.4,21.6,36.4z"/>
			<path class="st0" d="M18.8,38.9h-6.8c-0.3,0-0.6,0.3-0.6,0.6c0,0.3,0.3,0.6,0.6,0.6h6.8c0.3,0,0.6-0.3,0.6-0.6
				C19.3,39.2,19.1,38.9,18.8,38.9z"/>
		</g>
	</g>
	<g>
		<path class="st0" d="M61.8,38.4v-1.1h4.7v1.1h-1.7v4.9h-1.3v-4.9H61.8z"/>
		<path class="st0" d="M68.3,42v1.3H67V42H68.3z"/>
		<path class="st0" d="M72.8,37.2c0.4,0,0.7,0.1,0.9,0.2c0.3,0.1,0.5,0.3,0.6,0.4c0.2,0.2,0.3,0.4,0.3,0.6c0.1,0.2,0.1,0.5,0.1,0.7
			c0,0.2,0,0.5-0.1,0.7c-0.1,0.2-0.2,0.4-0.3,0.6c-0.2,0.2-0.4,0.3-0.6,0.4c-0.3,0.1-0.6,0.2-0.9,0.2h-1.3v2.2h-1.3v-6.1H72.8z
			 M72.4,40.1c0.1,0,0.3,0,0.4,0c0.1,0,0.3-0.1,0.4-0.1s0.2-0.2,0.2-0.3c0.1-0.1,0.1-0.3,0.1-0.5c0-0.2,0-0.3-0.1-0.5
			c-0.1-0.1-0.1-0.2-0.2-0.3c-0.1-0.1-0.2-0.1-0.4-0.1c-0.1,0-0.3,0-0.4,0h-1v1.8H72.4z"/>
		<path class="st0" d="M76.1,42v1.3h-1.3V42H76.1z"/>
		<path class="st0" d="M82.3,37.2v2.3h2.3v-2.3h1.3v6.1h-1.3v-2.6h-2.3v2.6H81v-6.1H82.3z"/>
		<path class="st0" d="M87.7,40.2c0.1-0.3,0.2-0.5,0.4-0.7c0.2-0.2,0.4-0.4,0.7-0.5c0.3-0.1,0.6-0.2,0.9-0.2s0.6,0.1,0.9,0.2
			c0.3,0.1,0.5,0.3,0.7,0.5c0.2,0.2,0.3,0.4,0.4,0.7c0.1,0.3,0.2,0.6,0.2,1c0,0.4-0.1,0.7-0.2,0.9c-0.1,0.3-0.2,0.5-0.4,0.7
			c-0.2,0.2-0.4,0.4-0.7,0.5c-0.3,0.1-0.6,0.2-0.9,0.2s-0.6-0.1-0.9-0.2c-0.3-0.1-0.5-0.3-0.7-0.5c-0.2-0.2-0.3-0.4-0.4-0.7
			c-0.1-0.3-0.2-0.6-0.2-0.9C87.5,40.8,87.6,40.4,87.7,40.2z M88.7,41.6c0,0.2,0.1,0.3,0.2,0.4c0.1,0.1,0.2,0.2,0.3,0.3
			c0.1,0.1,0.3,0.1,0.5,0.1s0.4,0,0.5-0.1c0.1-0.1,0.2-0.2,0.3-0.3c0.1-0.1,0.1-0.3,0.2-0.4c0-0.2,0-0.3,0-0.5c0-0.2,0-0.3,0-0.5
			c0-0.2-0.1-0.3-0.2-0.4c-0.1-0.1-0.2-0.2-0.3-0.3c-0.1-0.1-0.3-0.1-0.5-0.1s-0.4,0-0.5,0.1c-0.1,0.1-0.2,0.2-0.3,0.3
			c-0.1,0.1-0.1,0.3-0.2,0.4c0,0.2,0,0.3,0,0.5C88.7,41.3,88.7,41.5,88.7,41.6z"/>
		<path class="st0" d="M100.3,38.9c-0.1-0.1-0.2-0.2-0.3-0.3c-0.1-0.1-0.2-0.2-0.4-0.2c-0.1-0.1-0.3-0.1-0.4-0.1
			c-0.3,0-0.5,0.1-0.7,0.2c-0.2,0.1-0.4,0.3-0.5,0.5c-0.1,0.2-0.2,0.4-0.3,0.7c-0.1,0.2-0.1,0.5-0.1,0.8c0,0.3,0,0.5,0.1,0.7
			c0.1,0.2,0.1,0.5,0.3,0.6c0.1,0.2,0.3,0.3,0.5,0.5c0.2,0.1,0.4,0.2,0.7,0.2c0.4,0,0.7-0.1,0.9-0.4c0.2-0.2,0.4-0.6,0.4-1h1.2
			c0,0.4-0.1,0.7-0.3,1s-0.3,0.6-0.5,0.8c-0.2,0.2-0.5,0.4-0.8,0.5c-0.3,0.1-0.6,0.2-1,0.2c-0.4,0-0.8-0.1-1.2-0.2
			c-0.4-0.2-0.6-0.4-0.9-0.7c-0.2-0.3-0.4-0.6-0.6-1c-0.1-0.4-0.2-0.8-0.2-1.2c0-0.5,0.1-0.9,0.2-1.3c0.1-0.4,0.3-0.7,0.6-1
			c0.2-0.3,0.5-0.5,0.9-0.7c0.4-0.2,0.7-0.2,1.2-0.2c0.3,0,0.6,0,0.9,0.1c0.3,0.1,0.5,0.2,0.8,0.4c0.2,0.2,0.4,0.4,0.6,0.7
			c0.1,0.3,0.2,0.6,0.3,0.9h-1.2C100.4,39.1,100.3,39,100.3,38.9z"/>
		<path class="st0" d="M104.4,37.2v2.3h0c0.1-0.3,0.3-0.4,0.6-0.6c0.2-0.1,0.4-0.2,0.7-0.2c0.3,0,0.6,0,0.8,0.1
			c0.2,0.1,0.4,0.2,0.5,0.4c0.1,0.2,0.2,0.3,0.2,0.6c0,0.2,0.1,0.5,0.1,0.7v2.7H106v-2.5c0-0.4-0.1-0.6-0.2-0.8
			c-0.1-0.2-0.3-0.3-0.6-0.3c-0.3,0-0.5,0.1-0.7,0.3c-0.1,0.2-0.2,0.5-0.2,1v2.3h-1.1v-6.1H104.4z"/>
		<path class="st0" d="M108.9,38.2v-1h1.1v1H108.9z M110,38.9v4.4h-1.1v-4.4H110z"/>
		<path class="st0" d="M116.7,37.2l1.3,4.2h0l1.3-4.2h1.8v6.1h-1.2V39h0l-1.4,4.3h-1l-1.4-4.2h0v4.2h-1.2v-6.1H116.7z"/>
		<path class="st0" d="M122.9,38.2v-1h1.1v1H122.9z M124.1,38.9v4.4h-1.1v-4.4H124.1z"/>
		<path class="st0" d="M126.9,38.9v0.6h0c0.1-0.3,0.3-0.4,0.6-0.6s0.5-0.2,0.7-0.2c0.3,0,0.6,0,0.8,0.1c0.2,0.1,0.4,0.2,0.5,0.4
			c0.1,0.2,0.2,0.3,0.2,0.6c0,0.2,0.1,0.5,0.1,0.7v2.7h-1.1v-2.5c0-0.4-0.1-0.6-0.2-0.8c-0.1-0.2-0.3-0.3-0.6-0.3
			c-0.3,0-0.5,0.1-0.7,0.3c-0.1,0.2-0.2,0.5-0.2,1v2.3h-1.1v-4.4H126.9z"/>
		<path class="st0" d="M132.5,37.2v2.3h0c0.1-0.3,0.3-0.4,0.6-0.6c0.2-0.1,0.4-0.2,0.7-0.2c0.3,0,0.6,0,0.8,0.1
			c0.2,0.1,0.4,0.2,0.5,0.4c0.1,0.2,0.2,0.3,0.2,0.6c0,0.2,0.1,0.5,0.1,0.7v2.7h-1.1v-2.5c0-0.4-0.1-0.6-0.2-0.8
			c-0.1-0.2-0.3-0.3-0.6-0.3c-0.3,0-0.5,0.1-0.7,0.3c-0.1,0.2-0.2,0.5-0.2,1v2.3h-1.1v-6.1H132.5z"/>
		<path class="st0" d="M138.3,42v1.3c0,0.2,0,0.4-0.1,0.5c-0.1,0.2-0.2,0.3-0.3,0.4c-0.1,0.1-0.2,0.2-0.4,0.3
			c-0.2,0.1-0.3,0.1-0.5,0.2v-0.6c0.1,0,0.2-0.1,0.2-0.1c0.1-0.1,0.1-0.1,0.2-0.2c0.1-0.1,0.1-0.1,0.1-0.2s0-0.2,0-0.3H137V42H138.3
			z"/>
		<path class="st0" d="M144.4,43.3l-1.9-6.1h1.3l1.3,4.3h0l1.3-4.3h1.3l-1.9,6.1H144.4z"/>
		<path class="st0" d="M148.8,38.2v-1h1.1v1H148.8z M150,38.9v4.4h-1.1v-4.4H150z"/>
		<path class="st0" d="M152.9,42.2c0.2,0.2,0.4,0.3,0.7,0.3c0.2,0,0.4-0.1,0.6-0.2c0.2-0.1,0.3-0.3,0.3-0.4h1
			c-0.2,0.5-0.4,0.9-0.7,1.1c-0.3,0.2-0.7,0.3-1.2,0.3c-0.3,0-0.6-0.1-0.9-0.2c-0.3-0.1-0.5-0.3-0.7-0.5c-0.2-0.2-0.3-0.4-0.4-0.7
			c-0.1-0.3-0.1-0.6-0.1-0.9c0-0.3,0.1-0.6,0.2-0.9c0.1-0.3,0.2-0.5,0.4-0.7c0.2-0.2,0.4-0.4,0.7-0.5c0.3-0.1,0.5-0.2,0.9-0.2
			c0.4,0,0.7,0.1,0.9,0.2c0.3,0.1,0.5,0.3,0.6,0.6s0.3,0.5,0.4,0.8c0.1,0.3,0.1,0.6,0.1,1h-3C152.6,41.8,152.7,42.1,152.9,42.2z
			 M154.2,39.9c-0.1-0.2-0.3-0.2-0.6-0.2c-0.2,0-0.3,0-0.5,0.1c-0.1,0.1-0.2,0.1-0.3,0.2c-0.1,0.1-0.1,0.2-0.2,0.3
			c0,0.1,0,0.2-0.1,0.3h1.9C154.4,40.3,154.3,40.1,154.2,39.9z"/>
		<path class="st0" d="M159.4,38.9v0.8h-0.8v2.2c0,0.2,0,0.3,0.1,0.4c0.1,0.1,0.2,0.1,0.4,0.1c0.1,0,0.1,0,0.2,0c0.1,0,0.1,0,0.2,0
			v0.9c-0.1,0-0.2,0-0.3,0c-0.1,0-0.2,0-0.3,0c-0.2,0-0.3,0-0.5,0c-0.2,0-0.3-0.1-0.4-0.1c-0.1-0.1-0.2-0.2-0.3-0.3
			c-0.1-0.1-0.1-0.3-0.1-0.5v-2.6h-0.7v-0.8h0.7v-1.3h1.1v1.3H159.4z"/>
		<path class="st0" d="M165.2,37.2l2.4,4.1h0v-4.1h1.2v6.1h-1.3l-2.4-4.1h0v4.1h-1.2v-6.1H165.2z"/>
		<path class="st0" d="M170.6,40.3c0-0.3,0.1-0.5,0.2-0.7c0.1-0.2,0.3-0.3,0.5-0.4s0.4-0.2,0.6-0.2c0.2,0,0.5-0.1,0.7-0.1
			c0.2,0,0.4,0,0.6,0c0.2,0,0.4,0.1,0.6,0.2c0.2,0.1,0.3,0.2,0.4,0.4c0.1,0.2,0.2,0.4,0.2,0.6v2.3c0,0.2,0,0.4,0,0.6
			c0,0.2,0.1,0.3,0.1,0.4h-1.2c0-0.1,0-0.1-0.1-0.2c0-0.1,0-0.1,0-0.2c-0.2,0.2-0.4,0.3-0.6,0.4c-0.2,0.1-0.5,0.1-0.8,0.1
			c-0.2,0-0.4,0-0.6-0.1c-0.2-0.1-0.3-0.1-0.5-0.2c-0.1-0.1-0.2-0.2-0.3-0.4c-0.1-0.2-0.1-0.4-0.1-0.6c0-0.2,0-0.5,0.1-0.6
			c0.1-0.2,0.2-0.3,0.3-0.4c0.1-0.1,0.3-0.2,0.5-0.2c0.2,0,0.3-0.1,0.5-0.1c0.2,0,0.3-0.1,0.5-0.1s0.3,0,0.4-0.1
			c0.1,0,0.2-0.1,0.3-0.1c0.1-0.1,0.1-0.2,0.1-0.3c0-0.1,0-0.2-0.1-0.3c0-0.1-0.1-0.1-0.2-0.2c-0.1,0-0.1-0.1-0.2-0.1
			c-0.1,0-0.2,0-0.3,0c-0.2,0-0.4,0.1-0.5,0.2c-0.1,0.1-0.2,0.3-0.2,0.5H170.6z M173.2,41.1c0,0-0.1,0.1-0.2,0.1
			c-0.1,0-0.2,0-0.2,0.1c-0.1,0-0.2,0-0.3,0c-0.1,0-0.2,0-0.3,0c-0.1,0-0.2,0-0.3,0.1c-0.1,0-0.2,0.1-0.2,0.1
			c-0.1,0-0.1,0.1-0.1,0.2c0,0.1-0.1,0.2-0.1,0.3c0,0.1,0,0.2,0.1,0.3c0,0.1,0.1,0.1,0.2,0.2c0.1,0,0.1,0.1,0.2,0.1
			c0.1,0,0.2,0,0.3,0c0.2,0,0.4,0,0.5-0.1c0.1-0.1,0.2-0.2,0.3-0.3c0.1-0.1,0.1-0.2,0.1-0.3c0-0.1,0-0.2,0-0.3V41.1z"/>
		<path class="st0" d="M177.2,38.9v0.6h0c0.2-0.2,0.3-0.4,0.5-0.5c0.2-0.1,0.5-0.2,0.7-0.2c0.3,0,0.5,0.1,0.7,0.2
			c0.2,0.1,0.4,0.3,0.5,0.6c0.1-0.2,0.3-0.4,0.5-0.5c0.2-0.1,0.5-0.2,0.8-0.2c0.2,0,0.4,0,0.6,0.1c0.2,0.1,0.3,0.1,0.5,0.3
			c0.1,0.1,0.2,0.3,0.3,0.5c0.1,0.2,0.1,0.4,0.1,0.7v2.9h-1.1v-2.5c0-0.1,0-0.3,0-0.4c0-0.1,0-0.2-0.1-0.3c0-0.1-0.1-0.2-0.2-0.2
			c-0.1-0.1-0.2-0.1-0.4-0.1c-0.2,0-0.3,0-0.4,0.1c-0.1,0.1-0.2,0.2-0.2,0.3c-0.1,0.1-0.1,0.2-0.1,0.4c0,0.1,0,0.3,0,0.4v2.4h-1.1
			v-2.5c0-0.1,0-0.3,0-0.4c0-0.1,0-0.2-0.1-0.4c0-0.1-0.1-0.2-0.2-0.3c-0.1-0.1-0.2-0.1-0.4-0.1c-0.1,0-0.1,0-0.2,0
			c-0.1,0-0.2,0.1-0.3,0.1c-0.1,0.1-0.2,0.2-0.2,0.3c-0.1,0.1-0.1,0.3-0.1,0.5v2.5h-1.1v-4.4H177.2z"/>
	</g>
</g>
</svg>
