<?xml version="1.0" encoding="utf-8"?>
<!-- Generator: Adobe Illustrator 22.0.1, SVG Export Plug-In . SVG Version: 6.00 Build 0)  -->
<svg version="1.1" id="Layer_1" xmlns="http://www.w3.org/2000/svg" xmlns:xlink="http://www.w3.org/1999/xlink" x="0px" y="0px"
	 viewBox="0 0 193 40.2" style="enable-background:new 0 0 193 40.2;" xml:space="preserve">
<style type="text/css">
	.st0{fill:#F2F2F2;}
</style>
<g>
	<g>
		<g>
			<g>
				<path class="st0" d="M42.5,31c-0.1,0-0.1,0-0.2-0.1c-0.1-0.1-0.1-0.1-0.1-0.2v-18c0-0.1,0-0.1,0.1-0.1s0.1-0.1,0.2-0.1h2.3
					c0.1,0,0.1,0,0.2,0.1c0,0,0.1,0.1,0.1,0.2v15.5h6.5c0.1,0,0.1,0,0.2,0.1c0.1,0.1,0.1,0.1,0.1,0.2v2.2c0,0.1,0,0.1-0.1,0.2
					c-0.2,0-0.2,0-0.3,0H42.5z"/>
				<path class="st0" d="M59.2,31c-0.8,0-1.5-0.2-2.1-0.5s-1.2-0.8-1.6-1.3c-0.3-0.4-0.6-0.9-0.8-1.4s-0.3-1-0.3-1.6v-8.7
					c0-0.5,0.1-1.1,0.3-1.6s0.4-1,0.8-1.4c0.4-0.5,1-1,1.6-1.3s1.4-0.5,2.1-0.5c0.8,0,1.5,0.2,2.1,0.5s1.2,0.8,1.6,1.3
					c0.3,0.4,0.6,0.9,0.8,1.4s0.3,1,0.3,1.6v8.7c0,0.5-0.1,1.1-0.3,1.6s-0.4,1-0.8,1.4c-0.4,0.5-1,1-1.6,1.3
					C60.6,30.9,59.9,31,59.2,31z M59.2,15.6c-0.6,0-1.1,0.2-1.5,0.6c-0.4,0.4-0.6,0.9-0.6,1.4v8.7c0,0.6,0.2,1,0.6,1.4
					c0.4,0.4,0.9,0.6,1.5,0.6s1-0.2,1.4-0.6s0.6-0.9,0.6-1.4v-8.7c0-0.6-0.2-1-0.6-1.4C60.2,15.8,59.7,15.6,59.2,15.6z"/>
				<path class="st0" d="M70.5,31.1c-0.1,0-0.1,0-0.2-0.1c0,0-0.1-0.1-0.1-0.2V15.6H67c-0.1,0-0.1,0-0.2-0.1s-0.1-0.1-0.1-0.2V13
					c0-0.1,0-0.1,0.1-0.1s0.1-0.1,0.2-0.1h9.1c0.1,0,0.1,0,0.2,0.1l0.1,0.1v2.3c0,0.1,0,0.1-0.1,0.2c-0.1,0.1-0.1,0.1-0.2,0.1H73
					v15.3c0,0.1,0,0.1-0.1,0.2c0,0-0.1,0.1-0.2,0.1h-2.2V31.1z"/>
				<path class="st0" d="M84.7,31c-0.7,0-1.3-0.1-1.9-0.4s-1.1-0.6-1.5-1s-0.8-0.9-1-1.5c-0.3-0.6-0.4-1.2-0.4-1.9V13
					c0-0.1,0-0.1,0.1-0.1s0.1-0.1,0.2-0.1h2.3c0.1,0,0.1,0,0.2,0.1c0,0,0.1,0.1,0.1,0.2v13.2c0,0.6,0.2,1,0.6,1.4s0.9,0.6,1.5,0.6
					s1-0.2,1.4-0.6s0.6-0.9,0.6-1.4V13c0-0.1,0-0.1,0.1-0.1s0.1-0.1,0.2-0.1h2.3c0.1,0,0.1,0,0.1,0s0.1,0.1,0.1,0.2v13.3
					c0,0.7-0.1,1.3-0.4,1.9s-0.6,1.1-1,1.5s-0.9,0.8-1.5,1C86,30.9,85.4,31,84.7,31z"/>
				<path class="st0" d="M97.9,31c-0.3,0-0.6,0-0.9-0.1s-0.6-0.1-0.8-0.2c-0.9-0.3-1.6-0.9-2.2-1.7c-0.6-0.8-0.9-1.7-0.9-2.7v-1.1
					c0-0.1,0-0.1,0.1-0.2c0,0,0.1-0.1,0.2-0.1h2.3c0.1,0,0.1,0,0.2,0.1l0.1,0.1v1.1c0,0.6,0.2,1,0.6,1.4s0.9,0.6,1.4,0.6
					c0.6,0,1.1-0.2,1.4-0.6c0.4-0.4,0.6-0.9,0.6-1.4v-0.9c0-0.5-0.2-1-0.6-1.4s-0.9-0.6-1.4-0.6c-0.6,0-1.2-0.1-1.7-0.3
					c-0.4-0.1-0.7-0.3-1-0.5s-0.6-0.4-0.8-0.7c-0.4-0.4-0.7-0.9-0.9-1.5c-0.2-0.5-0.3-1.1-0.3-1.8v-1c0-1,0.3-1.9,0.9-2.7
					s1.3-1.4,2.2-1.7c0.5-0.2,1.1-0.3,1.7-0.3s1.2,0.1,1.7,0.3c0.9,0.3,1.6,0.9,2.2,1.7s0.9,1.7,0.9,2.7v0.9c0,0.1-0.1,0.2-0.2,0.2
					h-2.3c-0.1,0-0.1,0-0.2-0.1l-0.1-0.1v-0.8c0-0.5-0.2-1-0.6-1.4s-0.9-0.6-1.4-0.6c-0.6,0-1,0.2-1.4,0.6c-0.4,0.4-0.6,0.9-0.6,1.4
					v1c0,0.6,0.2,1.1,0.6,1.5s0.9,0.6,1.4,0.6c0.6,0,1.2,0.1,1.7,0.3c0.7,0.3,1.3,0.7,1.8,1.2c0.4,0.4,0.7,0.9,0.9,1.4
					c0.2,0.6,0.3,1.1,0.3,1.8v0.9c0,1-0.3,1.9-0.9,2.7c-0.6,0.8-1.3,1.4-2.2,1.7c-0.3,0.1-0.5,0.2-0.8,0.2C98.5,31,98.2,31,97.9,31z
					"/>
				<path class="st0" d="M115.3,31.1c-0.3,0-0.6,0-0.9-0.1s-0.6-0.1-0.8-0.2c-0.9-0.3-1.6-0.9-2.2-1.7c-0.6-0.8-0.9-1.7-0.9-2.7
					v-1.1l0.1-0.1h2.3l0.2,0.1v1.1c0,0.6,0.2,1.1,0.6,1.5s0.9,0.6,1.5,0.6s1.1-0.2,1.5-0.6s0.6-0.9,0.6-1.5v-0.9
					c0-0.6-0.2-1.1-0.6-1.5s-0.9-0.7-1.5-0.7s-1.2-0.1-1.7-0.3c-0.4-0.1-0.7-0.3-1-0.5s-0.6-0.4-0.8-0.7c-0.4-0.4-0.7-0.9-0.9-1.5
					c-0.2-0.5-0.3-1.1-0.3-1.8v-1c0-1,0.3-1.9,0.9-2.7s1.3-1.4,2.2-1.7c0.5-0.2,1.1-0.3,1.7-0.3s1.2,0.1,1.7,0.3
					c0.9,0.3,1.6,0.9,2.2,1.7s0.9,1.7,0.9,2.7v0.9c0,0.1,0,0.1-0.1,0.1h-2.3l-0.2-0.1v-0.9c0-0.6-0.2-1.1-0.6-1.5s-0.9-0.7-1.5-0.7
					s-1.1,0.2-1.5,0.6s-0.6,0.9-0.6,1.5v1c0,0.6,0.2,1.1,0.6,1.5s0.9,0.6,1.5,0.6s1.2,0.1,1.7,0.3c0.7,0.3,1.3,0.7,1.8,1.2
					c0.4,0.4,0.7,0.9,0.9,1.4c0.2,0.5,0.3,1.1,0.3,1.8v0.9c0,1-0.3,1.9-0.9,2.7c-0.6,0.8-1.3,1.4-2.2,1.7c-0.3,0.1-0.5,0.2-0.8,0.2
					C115.9,31,115.6,31.1,115.3,31.1z"/>
				<polygon class="st0" points="123.7,31 123.6,30.9 123.6,12.9 123.7,12.8 133,12.8 133.2,12.9 133.2,15.2 133,15.4 126.2,15.4 
					126.2,21 131.5,21 131.6,21.2 131.6,23.4 131.5,23.6 126.2,23.6 126.2,28.5 133,28.5 133.2,28.6 133.2,30.9 133,31 				"/>
				<path class="st0" d="M143.8,31.1l-0.1-0.1v-5.5c0-0.6-0.2-1.1-0.6-1.5c-0.4-0.4-0.9-0.6-1.5-0.6h-2.2V31l-0.2,0.1h-2.3
					c-0.1-0.2-0.2-2.2-0.2-5V14.2c0-0.8,0-1.2,0.1-1.3h5c0.2,0,0.5,0,0.7,0.1s0.5,0.1,0.7,0.2c0.9,0.3,1.6,0.9,2.2,1.7
					c0.6,0.8,0.9,1.7,0.9,2.7v1c0,0.2,0,0.3,0,0.4l-0.1,0.5v0.1l0,0v0.1l0,0l-0.1,0.1v0.1V20v0.1v0.1H146v0.1c0,0.1-0.1,0.1-0.1,0.2
					l0,0l0,0l-0.1,0.1v0.2l0,0c0,0,0,0,0-0.1l0,0l-0.1,0.1l-0.2,0.3l0,0l-0.1,0.1c-0.1,0.2-0.2,0.2-0.2,0.3l-0.4,0.4l0.2,0.2
					c0.4,0.4,0.7,0.9,0.9,1.4s0.3,1.1,0.4,1.7V31l-0.2,0.1H143.8z M139.4,20.7h2.1c0.6,0,1.1-0.2,1.5-0.6c0.1-0.1,0.1-0.1,0.2-0.2
					l0.1-0.1l0.1-0.1l0,0l0,0l0.1-0.1l0,0l0,0v-0.1v-0.1v-0.1c0-0.1,0-0.1,0.1-0.2V19l0,0v-1.3c0-0.6-0.2-1.1-0.6-1.5
					c-0.4-0.4-0.9-0.6-1.5-0.6h-2.1L139.4,20.7L139.4,20.7z"/>
				<path class="st0" d="M150.4,31.1l-0.1-0.2v-18l0.1-0.1h2.3l0.2,0.1v15.5h2.1c0.6,0,1.1-0.2,1.5-0.6s0.6-0.9,0.7-1.5V12.9
					l0.1-0.1h2.3l0.1,13.6c0,0.5-0.1,1-0.2,1.4c-0.1,0.5-0.4,0.9-0.6,1.3c-0.3,0.4-0.6,0.7-1,1s-0.8,0.5-1.2,0.7
					c-0.2,0.1-0.5,0.1-0.7,0.2s-0.5,0.1-0.7,0.1H150.4z"/>
				<polygon class="st0" points="164.2,31.1 164,30.9 164,12.9 164.2,12.8 166.5,12.8 166.6,12.9 166.6,30.9 166.5,31.1 				"/>
				<path class="st0" d="M175,31c-0.7,0-1.3-0.1-1.9-0.4c-0.6-0.3-1.1-0.6-1.5-1s-0.8-0.9-1-1.5s-0.4-1.2-0.4-1.8v-8.7
					c0-0.7,0.1-1.3,0.4-1.8c0.3-0.6,0.6-1.1,1-1.5s0.9-0.8,1.5-1s1.2-0.4,1.9-0.4c0.6,0,1.3,0.1,1.8,0.4c0.6,0.3,1.1,0.6,1.5,1
					s0.8,0.9,1,1.5c0.2,0.6,0.4,1.2,0.4,1.8V19l-0.2,0.1h-2.3l-0.1-0.1v-1.4c0-0.6-0.2-1.1-0.6-1.5c-0.4-0.4-0.9-0.6-1.5-0.6
					s-1.1,0.2-1.5,0.6c-0.4,0.4-0.6,0.9-0.6,1.5v8.7c0,0.6,0.2,1.1,0.6,1.5c0.4,0.4,0.9,0.6,1.5,0.6s1.1-0.2,1.5-0.6
					s0.6-0.9,0.6-1.5v-0.6l0.1-0.1h2.3l0.2,0.1v0.7c0,0.7-0.1,1.3-0.4,1.8c-0.3,0.6-0.6,1.1-1,1.5s-0.9,0.8-1.5,1
					C176.3,30.9,175.7,31,175,31z"/>
				<polygon class="st0" points="183.6,31 183.4,30.9 183.4,12.9 183.6,12.8 192.9,12.8 193,12.9 193,15.2 192.9,15.4 186,15.4 
					186,21 191.3,21 191.5,21.2 191.5,23.4 191.3,23.6 186,23.6 186,28.5 192.9,28.5 193,28.6 193,30.9 192.9,31 				"/>
			</g>
		</g>
		<g>
			<path class="st0" d="M17.5,26c1.4-1.1,2.6-2,3.2-4c0.8,1.6,2.3,2,4.2,2.6l0.4,0.1c0.1,0,0.1,0,0.2,0s0.2,0,0.3-0.1
				c0.1-0.1,0.2-0.3,0.2-0.5v-2.8c0.6,0.3,1.4,0.6,2.4,0.6c0.3,0,0.6-0.3,0.6-0.6v-2.7h1.1c0.3,0,0.6-0.3,0.6-0.6V6
				c0-0.2-0.1-0.3-0.2-0.5c-0.1-0.1-0.3-0.1-0.5-0.1c-1.1,0.3-2,0.6-2.9,0.9c-0.7-1.2-2.3-2.9-2.3-2.9c-0.1-0.1-0.3-0.2-0.5-0.1
				c-1.5,0.4-2.8,0.8-3.3,1c-0.6-0.5-1.3-1.1-2-1.6c-1-0.8-2-1.6-3.1-2.6C15.5,0,15.2,0,15,0.1c-1.1,1-2.1,1.8-3.1,2.6
				c-0.7,0.6-1.4,1.1-2,1.6C9.3,4.1,8,3.7,6.5,3.3c-0.2,0-0.4,0-0.5,0.1c0,0-1.7,1.7-2.3,2.9c-0.9-0.2-1.9-0.5-3-0.8
				c-0.2-0.1-0.4,0-0.5,0.1S0,5.8,0,6v12.2c0,0.3,0.3,0.6,0.6,0.6h1.1v2.7c0,0.3,0.3,0.6,0.6,0.6c1,0,1.8-0.3,2.4-0.6v2.8
				c0,0.2,0.1,0.3,0.2,0.5c0.1,0.1,0.2,0.1,0.3,0.1c0.1,0,0.1,0,0.2,0l0.4-0.1c2-0.6,3.4-1,4.2-2.6c0.6,2,1.8,2.9,3.2,4
				c0.5,0.4,1,0.8,1.6,1.2V34H0.6C0.3,34,0,34.3,0,34.6C0,34.7,0.3,35,0.6,35h29.6c0.3,0,0.6-0.3,0.6-0.6s-0.3-0.6-0.6-0.6H15.9
				v-6.6C16.5,26.7,17,26.3,17.5,26z M24.9,17.6h-3.8c0.1-4.2,0.8-6.5,2.4-8C24.4,11.5,24.9,13.9,24.9,17.6z M21.1,18.7h3.8v4.7
				C22.3,22.6,21.2,22.2,21.1,18.7z M27.9,20.8C27,20.7,26.4,20.2,26,20v-1.3h1.9V20.8z M29.6,17.6h-3.5c-0.1-4-0.6-6.7-1.6-8.8
				c1.3-0.9,3-1.4,5.1-2.1V17.6z M24.1,4.5C25,5.3,25.6,6.2,26,6.8c-0.8,0.3-1.4,0.6-2.1,1c-0.6-1-1.3-1.8-2.1-2.6
				C22.4,5,23.2,4.7,24.1,4.5z M12.6,3.6c0.8-0.7,1.8-1.4,2.8-2.3c1,0.9,1.9,1.6,2.8,2.3c2,1.6,3.7,2.9,4.9,4.9
				c-1.9,1.6-2.9,4.2-3,9.1h-9.3c-0.1-4.9-1.1-7.4-3-9.1C8.9,6.6,10.5,5.2,12.6,3.6z M7.2,9.6c1.6,1.5,2.3,3.8,2.4,8H5.8
				C5.8,13.9,6.3,11.5,7.2,9.6z M6.6,4.5C7.5,4.7,8.3,5,8.9,5.2C8.1,6,7.4,6.8,6.8,7.8c-0.6-0.4-1.3-0.7-2.1-1
				C5.1,6.2,5.7,5.3,6.6,4.5z M1.1,6.8c2.1,0.6,3.8,1.2,5.1,2c-1,2-1.5,4.7-1.6,8.8H1.1V6.8z M2.8,20.8v-2.1h1.9V20
				C4.3,20.2,3.6,20.7,2.8,20.8z M5.8,23.4v-4.7h3.8C9.5,22.2,8.4,22.6,5.8,23.4z M10.7,18.7H20c-0.1,3.9-1.2,4.8-3.2,6.3
				c-0.4,0.3-0.9,0.7-1.4,1.1c-0.5-0.4-1-0.8-1.4-1.1C11.9,23.5,10.8,22.7,10.7,18.7z"/>
			<path class="st0" d="M21.6,36.4H9.1c-0.3,0-0.6,0.3-0.6,0.6s0.3,0.6,0.6,0.6h12.5c0.3,0,0.6-0.3,0.6-0.6
				C22.2,36.6,21.9,36.4,21.6,36.4z"/>
			<path class="st0" d="M18.8,38.9H12c-0.3,0-0.6,0.3-0.6,0.6s0.3,0.6,0.6,0.6h6.8c0.3,0,0.6-0.3,0.6-0.6
				C19.3,39.2,19.1,38.9,18.8,38.9z"/>
		</g>
	</g>
</g>
</svg>
