<svg xmlns="http://www.w3.org/2000/svg" viewBox="0 0 723.54 117.35"><defs><style>.cls-1{fill:#781317;}.cls-2{fill:#595857;}.cls-3{fill:#fff;}</style></defs><title>logo</title><g id="Layer_2" data-name="Layer 2"><g id="Layer_1-2" data-name="Layer 1"><path class="cls-1" d="M53.53,103.58c1.46,0,2.78-.25,2.78-3.23S55,97.13,53.53,97.13s-2.79.24-2.79,3.22S52.06,103.58,53.53,103.58Z"/><path class="cls-1" d="M63.12,103.58c1.46,0,2.77-.25,2.77-3.23s-1.31-3.22-2.77-3.22-2.79.24-2.79,3.22S61.65,103.58,63.12,103.58Z"/><path class="cls-1" d="M72.65,103.46c2.5,0,2.5-1.11,2.5-1.48,0-.73-.2-1.41-1.6-1.41H70.09C70.14,102.32,70.63,103.46,72.65,103.46Z"/><path class="cls-1" d="M107.65,77.12a52.11,52.11,0,1,0-.9,2.25H41.07V77.12Zm-35,19h3.24v1H72.65c-1.86,0-2.43,1-2.54,2.49h3.44c2.11,0,2.55,1.29,2.55,2.36,0,.91-.45,2.44-3.45,2.44-2.36,0-3.51-1.36-3.51-4.13S70.29,96.17,72.65,96.17Zm-9.53,0c1.73,0,3.73.48,3.73,4.18s-2,4.18-3.73,4.18-3.74-.48-3.74-4.18S61.37,96.17,63.12,96.17Zm-9.59,0c1.74,0,3.74.48,3.74,4.18s-2,4.18-3.74,4.18-3.74-.48-3.74-4.18S51.79,96.17,53.53,96.17Zm-12.29,6a2.15,2.15,0,0,1,2.34-2.43h2a1.13,1.13,0,0,0,.89-.39,1.59,1.59,0,0,0,.31-1,1.17,1.17,0,0,0-1.2-1.29H41.4v-1h4.17a2.13,2.13,0,0,1,2.15,2.25,2.16,2.16,0,0,1-2.15,2.3h-2c-1,0-1.38.44-1.38,1.47v1.27h5.45v1H41.24Zm-9.1-38.41V75.43a3.13,3.13,0,0,1-3.38,2.81,3.14,3.14,0,0,1-3.38-2.81V57H78.7a8.45,8.45,0,0,0,0-16.9H28.2a3.14,3.14,0,0,1-2.82-3.38,3.13,3.13,0,0,1,2.82-3.38H80.9a2.47,2.47,0,0,1,.38.05,15.21,15.21,0,0,1,0,30.31,1.65,1.65,0,0,1-.38.05Z"/><path class="cls-1" d="M58.67,117.35a58.68,58.68,0,1,1,58.68-58.68A58.74,58.74,0,0,1,58.67,117.35Zm0-115.14a56.46,56.46,0,1,0,56.46,56.46A56.53,56.53,0,0,0,58.67,2.21Z"/><polygon class="cls-2" points="514.59 9.4 509.59 9.4 509.59 62.2 551.55 62.2 551.55 57.32 514.59 57.32 514.59 9.4"/><path class="cls-2" d="M196.27,17.87a14.57,14.57,0,0,0-9.21-7.93c-.44-.1-.86-.23-1.31-.3l-.36-.05a14.19,14.19,0,0,0-2.27-.2h-.25v0H155.51V33.54h-6v4.88h6V62.2h4.88V38.42h22.48v0h.25l.28,0a14.49,14.49,0,0,0,12.87-20.55Zm-3.58,6.18a9.51,9.51,0,0,1-.18,1.78v0a9.61,9.61,0,0,1-9.39,7.66H160.39V14.3h22.73a9.62,9.62,0,0,1,9.59,9.59A1,1,0,0,1,192.69,24.05Z"/><path class="cls-2" d="M410.06,17.87a14.57,14.57,0,0,0-9.21-7.93c-.44-.1-.86-.23-1.31-.3l-.35-.05a14.4,14.4,0,0,0-2.27-.2h-.25v0H369.3V33.54h-6v4.88h6V62.2h4.88V38.42h22.49v0h.25l.27,0a14.47,14.47,0,0,0,12.87-20.55Zm-3.57,6.18a9.51,9.51,0,0,1-.19,1.78v0a9.61,9.61,0,0,1-9.38,7.66H374.18V14.3h22.74a9.61,9.61,0,0,1,9.58,9.59C406.5,23.94,406.49,24,406.49,24.05Z"/><path class="cls-2" d="M254.18,38.24h0l-.08-.15a14.51,14.51,0,0,0,11-8.42,14.3,14.3,0,0,0,1.28-5.92,14.57,14.57,0,0,0-10.54-14c-.44-.11-.87-.23-1.32-.3l-.36-.06a14,14,0,0,0-2.26-.2h-.24v0H224.34V33.38h-6v4.87h6V62h4.87V38.25h19.36c.91,1.47,4.12,7,13.4,23.22l.51.9,4.31-2.15Zm-25-24.11H252a9.6,9.6,0,0,1,9.58,9.59.86.86,0,0,1,0,.16,9.69,9.69,0,0,1-.17,1.79v0A9.61,9.61,0,0,1,252,33.36h-.24v0h-22.5Z"/><path class="cls-2" d="M313.32,62.76c-11.56,0-21-8.79-21-19.56V28.4c0-10.79,9.42-19.56,21-19.56s21,8.77,21,19.56V43.2C334.3,54,324.89,62.76,313.32,62.76Zm0-48.9c-8.8,0-16,6.52-16,14.54V43.2c0,8,7.16,14.53,16,14.53s16-6.53,16-14.53V28.4C329.28,20.38,322.13,13.86,313.32,13.86Z"/><path class="cls-2" d="M457.44,62.76c-11.56,0-21-8.79-21-19.56V28.4c0-10.79,9.42-19.56,21-19.56s21,8.77,21,19.56V43.2C478.42,54,469,62.76,457.44,62.76Zm0-48.9c-8.8,0-16,6.52-16,14.54V43.2c0,8,7.16,14.53,16,14.53s16-6.53,16-14.53V28.4C473.4,20.38,466.25,13.86,457.44,13.86Z"/><rect class="cls-2" x="574.59" y="9.39" width="4.88" height="52.81"/><path class="cls-2" d="M708,14.17h15.58V9.37H708a26.44,26.44,0,0,0-26.29,24h-5.89v4.79h5.89a26.44,26.44,0,0,0,26.29,24h15.58V57.39H708a21.62,21.62,0,0,1-21.47-19.2H719.4V33.4H686.48A21.64,21.64,0,0,1,708,14.17Z"/><path class="cls-2" d="M611.79,33.4H605.9v4.79h5.77v24h4.79v-24h33.06V33.4H616.6a21.64,21.64,0,0,1,21.48-19.23h15.58V9.37H638.08A26.44,26.44,0,0,0,611.79,33.4Z"/><path class="cls-2" d="M371.49,84.05h8V81.6h-8a13.52,13.52,0,0,0-13.44,12.28h-3v2.45h3a13.5,13.5,0,0,0,13.43,12.26h8v-2.45h-8a11.05,11.05,0,0,1-11-9.81h16.82V93.88H360.51A11.07,11.07,0,0,1,371.49,84.05Z"/><rect class="cls-2" x="297.05" y="81.6" width="2.41" height="26.99"/><polygon class="cls-2" points="513.76 81.68 513.84 105.09 496.54 81.69 494.22 81.67 494.22 108.67 496.56 108.67 496.56 85.25 513.76 108.67 515.94 108.67 515.94 81.67 513.76 81.68"/><polygon class="cls-2" points="446.74 81.67 425.74 81.67 425.75 84.02 435.07 84.03 435.07 108.67 437.4 108.68 437.41 84.04 446.74 84.02 446.74 81.67"/><path class="cls-2" d="M227.66,108.67l-8.87-27.11,2.5,0s7.61,23.8,7.93,25c.36-1.3,8.07-25,8.07-25h2.45l-9,27.11Z"/><path class="cls-2" d="M630.81,108.69V82h4.37s8.43,22.76,8.65,23.5c.25-.82,7.87-23.5,7.87-23.5h3.91v26.73H653.2V84.62l-8.3,24-2.39,0L633.23,84.3v24.39Z"/><path class="cls-2" d="M575.56,81.67h-3.2l-4.1,12h-2.32v2h1.78l-4.15,13h2.34l4.08-13h8.07l4.39,13,2.42,0Zm-4.77,12c.2-1,2.52-8.84,3.1-10.26.42,1.06,3,8.26,3.61,10.26Z"/><rect class="cls-1" x="40.03" y="94.09" width="36.83" height="11.58"/><path class="cls-3" d="M49.52,91.87h1v-.32h-1a1.75,1.75,0,0,0-1.75,1.6h-.39v.31h.39a1.75,1.75,0,0,0,1.75,1.6h1v-.32h-1a1.44,1.44,0,0,1-1.43-1.28h2.19v-.31H48.09A1.44,1.44,0,0,1,49.52,91.87Z"/><rect class="cls-3" x="40.76" y="91.55" width="0.31" height="3.51"/><polygon class="cls-3" points="68.94 91.67 68.94 94.6 66.84 91.56 66.62 91.36 66.66 94.67 66.98 94.67 66.99 91.63 69.22 94.67 68.94 94.67 68.94 91.67 68.94 91.67"/><polygon class="cls-3" points="59.94 91.67 57.3 91.67 57.02 91.92 57.94 91.87 57.94 94.67 58.82 94.67 58.78 91.67 59.94 91.89 59.94 91.67"/><path class="cls-3" d="M30,95.07l-1.15-3.52h.32s1,3.1,1,3.25c.05-.17,1.05-3.24,1.05-3.24h.32l-1.17,3.52Z"/><path class="cls-3" d="M85.26,95.07V91.6h.56s1.1,3,1.13,3.05c0-.11,1-3.05,1-3.05h.51v3.47h-.31V91.94l-1.08,3.12h-.31L85.57,91.9v3.17Z"/><path class="cls-3" d="M77.79,91.67h-.42l-.53,1h.1v1h-.17l-.54,1.55.3.07.53-1.62h1l.57,1.55.32,0ZM77.17,93s.33-1.15.4-1.34A7,7,0,0,1,78,93Z"/></g></g></svg>