<?xml version="1.0" encoding="utf-8"?>
<!-- Generator: Adobe Illustrator 23.0.4, SVG Export Plug-In . SVG Version: 6.00 Build 0)  -->
<svg version="1.1" id="Layer_1" xmlns="http://www.w3.org/2000/svg" xmlns:xlink="http://www.w3.org/1999/xlink" x="0px" y="0px"
	 viewBox="0 0 605.4 409" style="enable-background:new 0 0 605.4 409;" xml:space="preserve">
<style type="text/css">
	.st0{fill:#781317;}
	.st1{fill:#FFFFFF;}
</style>
<title>logo_footer</title>
<g>
	<g id="Layer_1-2">
		<path class="st0" d="M291.1,232.6c3.3,0,6.3-0.5,6.3-7.2s-3-7.2-6.3-7.2s-6.2,0.6-6.2,7.2S287.8,232.6,291.1,232.6z"/>
		<path class="st0" d="M312.7,232.6c3.3,0,6.2-0.5,6.2-7.2s-3-7.2-6.2-7.2s-6.2,0.6-6.2,7.2S309.4,232.6,312.7,232.6z"/>
		<path class="st0" d="M334.1,232.4c5.6,0,5.6-2.5,5.6-3.3c0-1.6-0.4-3.2-3.6-3.2h-7.8C328.4,229.8,329.5,232.4,334.1,232.4z"/>
		<path class="st0" d="M412.7,173.2c22.5-60.8-8.6-128.3-69.4-150.7S215,31.1,192.6,91.9s8.6,128.3,69.4,150.7
			c58.8,21.7,124.3-6.6,148.7-64.3H263.1v-5.1H412.7z M334.1,216h7.3v2.1h-7.3c-4.2,0-5.5,2.2-5.7,5.6h7.7c4.7,0,5.7,2.9,5.7,5.3
			c0,2-1,5.4-7.8,5.4c-5.3,0-7.9-3-7.9-9.3S328.8,216,334.1,216z M312.7,216c3.9,0,8.4,1.1,8.4,9.4s-4.5,9.4-8.4,9.4
			s-8.4-1.1-8.4-9.4S308.8,216,312.7,216L312.7,216z M291.1,216c3.9,0,8.4,1.1,8.4,9.4s-4.5,9.4-8.4,9.4s-8.4-1.1-8.4-9.4
			S287.2,216,291.1,216L291.1,216z M263.5,229.5c0-3.5,1.9-5.4,5.2-5.4h4.5c0.8,0,1.5-0.3,2-0.9c0.5-0.6,0.7-1.4,0.7-2.1
			c0.1-1.5-0.9-2.7-2.4-2.9c-0.1,0-0.2,0-0.3,0h-9.4V216h9.4c2.6,0,4.8,2.1,4.8,4.8c0,0.1,0,0.2,0,0.3c0,2.6-1.6,5.1-4.8,5.1h-4.5
			c-2.2,0-3.1,1-3.1,3.3v2.9h12.2v2.2h-14.4L263.5,229.5z M243.1,143.3v26.2c0,3.5-3.4,6.3-7.6,6.3s-7.6-2.8-7.6-6.3v-41.4h119.8
			c10.5,0,19-8.5,19-19s-8.5-19-19-19H234.2c-3.5,0-6.3-3.4-6.3-7.6s2.8-7.6,6.3-7.6h118.4c0.3,0,0.6,0,0.9,0.1
			c17.4,1.1,31.1,15.9,31.1,34.1s-13.8,33-31.1,34c-0.3,0.1-0.6,0.1-0.9,0.1L243.1,143.3z"/>
		<path class="st0" d="M302.7,263.6c-72.7,0-131.8-59.1-131.8-131.8S230,0,302.7,0s131.8,59.1,131.8,131.8S375.4,263.6,302.7,263.6z
			 M302.7,5c-70,0-126.8,56.8-126.8,126.8c0,70,56.8,126.8,126.8,126.8c70,0,126.8-56.8,126.8-126.8c0,0,0,0,0-0.1
			C429.4,61.8,372.7,5.1,302.7,5z"/>
		<polygon class="st1" points="385,307.6 379.7,307.6 379.7,363.3 424,363.3 424,358.2 385,358.2 		"/>
		<path class="st1" d="M49.3,316.6c-1.9-4.1-5.4-7.1-9.7-8.4c-0.5-0.1-0.9-0.2-1.4-0.3c-0.1,0-0.2,0-0.4,0c-0.8-0.1-1.6-0.2-2.4-0.2
			h-0.3l0,0H6.3v25.5H0v5.1h6.3v25.1h5.2v-25.1h24.3c8.4-0.2,15.1-7.1,15-15.6C50.7,320.6,50.2,318.5,49.3,316.6z M45.5,323.1
			c0,0.6-0.1,1.3-0.2,1.9l0,0c-1,4.7-5.1,8.1-9.9,8.1h-24v-20.2h24c5.6,0,10.1,4.5,10.1,10.1C45.6,323,45.6,323,45.5,323.1z"/>
		<path class="st1" d="M274.8,316.6c-1.9-4.1-5.4-7.1-9.7-8.4c-0.5-0.1-0.9-0.2-1.4-0.3c-0.1,0-0.2,0-0.4,0
			c-0.8-0.1-1.6-0.2-2.4-0.2h-0.3l0,0h-28.9v25.5h-6.3v5.1h6.3v25.1h5.1v-25.1h24.3c8.4-0.2,15.1-7.1,15-15.5
			C276.2,320.6,275.7,318.5,274.8,316.6z M271,323.1c0,0.6-0.1,1.3-0.2,1.9l0,0c-1,4.7-5.1,8.1-9.9,8.1h-24v-20.2h24
			c5.6,0,10.1,4.5,10.1,10.1C271,323,271,323,271,323.1z"/>
		<path class="st1" d="M110.4,338.1L110.4,338.1l-0.1-0.2c5.2-0.8,9.6-4.1,11.7-8.9c1.8-4,1.8-8.6-0.1-12.6
			c-1.9-4.1-5.4-7.1-9.7-8.4c-0.5-0.1-0.9-0.2-1.4-0.3l-0.4,0c-0.8-0.1-1.6-0.2-2.4-0.2h-0.2l0,0H78.9v25.5h-6.3v5.1h6.3v25.1H84
			v-25h20.4c1,1.5,4.3,7.3,14.1,24.5l0.5,0.9l4.5-2.3L110.4,338.1z M84.1,312.6h24c5.6,0,10.1,4.5,10.1,10.1v0.2
			c0,0.6-0.1,1.3-0.2,1.9l0,0c-1,4.7-5.1,8.1-9.9,8.1h-24L84.1,312.6z"/>
		<path class="st1" d="M172.8,363.9c-12.2,0-22.1-9.3-22.1-20.6v-15.6c0-11.4,9.9-20.6,22.1-20.6s22.1,9.2,22.1,20.6v15.6
			C194.9,354.7,185,363.9,172.8,363.9z M172.8,312.4c-9.3,0-16.8,6.9-16.8,15.3v15.6c0,8.4,7.6,15.3,16.8,15.3s16.8-6.9,16.8-15.3
			v-15.6C189.6,319.2,182.1,312.4,172.8,312.4z"/>
		<path class="st1" d="M324.7,363.9c-12.2,0-22.1-9.3-22.1-20.6v-15.6c0-11.4,9.9-20.6,22.1-20.6s22.1,9.2,22.1,20.6v15.6
			C346.9,354.7,337,363.9,324.7,363.9z M324.7,312.4c-9.3,0-16.8,6.9-16.8,15.3v15.6c0,8.4,7.5,15.3,16.8,15.3s16.8-6.9,16.8-15.3
			v-15.6C341.6,319.2,334,312.4,324.7,312.4z"/>
		<rect x="448.3" y="307.6" class="st1" width="5.1" height="55.7"/>
		<path class="st1" d="M588.9,312.7h16.4v-5h-16.4c-14.4,0-26.4,11-27.7,25.4H555v5h6.2c1.3,14.3,13.3,25.3,27.7,25.3h16.4v-5.1
			h-16.4c-11.6,0-21.3-8.7-22.6-20.2H601v-5h-34.7C567.6,321.4,577.3,312.7,588.9,312.7z"/>
		<path class="st1" d="M487.5,333h-6.2v5h6.1v25.3h5V338h34.9v-5h-34.7c1.3-11.5,11-20.3,22.6-20.3h16.4v-5h-16.4
			C500.8,307.7,488.8,318.7,487.5,333z"/>
		<path class="st0" d="M355.6,204.1c0.8,0,1.5-0.7,1.5-1.5s-0.7-1.5-1.5-1.5s-1.5,0.7-1.5,1.5S354.7,204.1,355.6,204.1z"/>
		<path class="st1" d="M218,394h-3.4v3h3.4c0.6,6.9,6.5,12.2,13.4,12h8.2v-3h-8.2c-5.7,0-10.4-4-11-9h17.2v-3h-17.1
			c0.6-5,5.3-10,11-10h8.2v-2h-8.2C224.5,381.8,218.6,387.1,218,394z"/>
		<rect x="163.7" y="382" class="st1" width="3" height="27"/>
		<polygon class="st1" points="383.4,405.4 366,382 363.7,382 363.7,409 366,409 366,385.6 383.4,409 385.7,409 385.7,382 
			383.4,382 		"/>
		<polygon class="st1" points="291.4,382 291.4,384.4 300.7,384.4 300.8,409 303.1,409 303.1,384.4 312.4,384.4 312.4,382 		"/>
		<path class="st1" d="M83,406.9c-0.3-1.2-7.9-25-7.9-25h-2.5l8.8,27.1h3.1l9-27.1H91C91,381.9,83.3,405.6,83,406.9z"/>
		<path class="st1" d="M527.4,382c0,0-7.8,23.4-8,24.2c-0.2-0.7-8.5-24.2-8.5-24.2h-4.2v27h2v-24.4l9.4,24.4h2.6l8-24v24h3v-27
			H527.4z"/>
		<path class="st1" d="M445.9,382l-4.1,12h-2.1v2h1.5l-4.1,13h2.3l4.1-13h8.1l4.4,13h2.4l-9.3-27H445.9z M444.3,394
			c0.2-1,2.5-8.8,3.1-10.3c0.4,1.1,3,8.3,3.6,10.3H444.3z"/>
		<rect x="256.9" y="212" class="st0" width="89.9" height="26"/>
		<path class="st1" d="M282.8,207.6h2.2v-0.7h-2.2c-1.9,0-3.5,1.4-3.7,3.3h-0.8v0.7h0.8c0.2,1.9,1.8,3.3,3.7,3.3h2.2v-0.7h-2.2
			c-1.5,0-2.8-1.1-3-2.7h4.6v-0.7h-4.6C280,208.7,281.3,207.6,282.8,207.6z"/>
		<rect x="264.5" y="206.9" class="st1" width="0.7" height="7.4"/>
		<polygon class="st1" points="323.7,206.9 323.7,213.3 319.2,206.9 318.7,206.9 318.8,214.3 319.4,214.3 319.4,207.8 324.1,214 
			324.7,214 324.7,206.9 		"/>
		<polygon class="st1" points="304.9,207 299.1,207 299.1,207.6 301.7,207.6 301.7,214.3 302.3,214.3 302.3,207.6 304.9,207.6 		"/>
		<path class="st1" d="M242,214.3l-2.4-7.4h0.7c0,0,2.1,6.5,2.2,6.8c0.1-0.4,2.2-6.8,2.2-6.8h0.7l-2.4,7.4L242,214.3z"/>
		<path class="st1" d="M357.7,214.3V207h1.2c0,0,2.3,6.2,2.4,6.4c0.1-0.2,2.1-6.4,2.1-6.4h1.1v7.3h-0.7v-6.6l-2.3,6.5h-0.6l-2.5-6.6
			v6.6L357.7,214.3z"/>
		<path class="st1" d="M342.1,207h-0.9l-1.1,3h-0.4v1h0.3l-1.1,3.4l0.6,0.1l1.1-3.5h2.2l1.2,3.4h0.6L342.1,207z M340.8,210
			c0,0,0.7-2.4,0.8-2.8c0.4,0.9,0.8,1.8,1,2.8H340.8z"/>
		<path class="st1" d="M403.5,253c0.8,0,1.5-0.7,1.5-1.5s-0.7-1.5-1.5-1.5s-1.5,0.7-1.5,1.5S402.7,253,403.5,253z"/>
	</g>
</g>
</svg>
