<?xml version="1.0" standalone="no"?>
<!DOCTYPE svg PUBLIC "-//W3C//DTD SVG 20010904//EN"
 "http://www.w3.org/TR/2001/REC-SVG-20010904/DTD/svg10.dtd">
<svg version="1.0" xmlns="http://www.w3.org/2000/svg"
 width="260.000000pt" height="260.000000pt" viewBox="0 0 260.000000 260.000000"
 preserveAspectRatio="xMidYMid meet">
<metadata>
Created by potrace 1.11, written by Peter Selinger 2001-2013
</metadata>
<g transform="translate(0.000000,260.000000) scale(0.100000,-0.100000)"
fill="#000000" stroke="none">
<path d="M1290 2549 c-36 -4 -78 -10 -95 -13 -16 -3 -44 -7 -61 -10 -53 -10
-177 -53 -255 -90 -260 -124 -490 -366 -598 -631 l-21 -50 23 29 c192 253 431
410 712 472 106 23 314 27 425 7 499 -86 891 -499 966 -1018 10 -66 10 -253 1
-335 -18 -159 -95 -365 -189 -509 l-49 -74 38 33 c155 133 293 352 357 562 44
144 57 248 52 413 -6 218 -37 346 -132 540 -184 377 -564 641 -964 671 -132
10 -144 10 -210 3z"/>
<path d="M369 2199 c-190 -194 -312 -431 -353 -687 -18 -112 -18 -316 0 -427
41 -248 163 -491 337 -668 95 -96 121 -118 200 -170 474 -314 1091 -252 1492
148 123 122 204 240 270 390 29 65 28 65 -30 -10 -98 -128 -261 -263 -400
-332 -170 -84 -296 -115 -485 -119 -151 -3 -234 8 -362 46 -426 128 -754 519
-823 980 -16 106 -12 290 10 408 11 61 15 78 36 141 39 119 86 217 151 314 21
31 36 57 33 57 -3 0 -37 -32 -76 -71z"/>
<path d="M1105 2025 c-99 -69 -184 -128 -190 -132 -5 -5 -46 -33 -90 -63 -44
-30 -145 -98 -225 -152 -82 -56 -148 -108 -153 -120 -10 -28 -22 -168 -14
-168 4 0 37 22 74 48 38 27 199 138 358 247 160 109 321 220 360 247 38 26 72
48 75 48 4 0 137 -90 296 -199 390 -269 546 -376 563 -386 12 -7 13 4 8 67 -4
41 -10 84 -14 96 -5 12 -75 67 -158 123 -83 56 -270 185 -417 285 -147 101
-273 184 -280 183 -7 0 -94 -56 -193 -124z"/>
<path d="M1004 1445 c-3 -6 -3 -69 -2 -141 l3 -129 133 0 132 0 0 140 0 140
-131 0 c-85 0 -133 -3 -135 -10z"/>
<path d="M1330 1315 l0 -141 129 1 c71 0 133 3 137 7 9 10 9 256 0 265 -4 4
-66 8 -137 8 l-129 1 0 -141z"/>
<path d="M1000 976 l0 -141 135 0 135 0 0 141 0 141 -135 1 -135 0 0 -142z"/>
<path d="M1330 976 l0 -142 129 1 c71 0 133 3 137 7 4 5 8 67 8 138 1 108 -2
131 -14 134 -8 3 -70 4 -137 4 l-123 0 0 -142z"/>
</g>
</svg>
