<?xml version="1.0" standalone="no"?>
<!DOCTYPE svg PUBLIC "-//W3C//DTD SVG 20010904//EN"
 "http://www.w3.org/TR/2001/REC-SVG-20010904/DTD/svg10.dtd">
<svg version="1.0" xmlns="http://www.w3.org/2000/svg"
 width="260.000000pt" height="260.000000pt" viewBox="0 0 260.000000 260.000000"
 preserveAspectRatio="xMidYMid meet">
<metadata>
Created by potrace 1.11, written by Peter Selinger 2001-2013
</metadata>
<g transform="translate(0.000000,260.000000) scale(0.100000,-0.100000)"
fill="#000000" stroke="none">
<path d="M1158 2595 c-2 -2 -25 -6 -53 -9 -195 -26 -435 -127 -595 -251 -267
-207 -452 -521 -497 -843 -14 -102 -8 -340 11 -432 106 -512 490 -908 991
-1020 145 -33 399 -35 535 -5 14 4 36 8 50 11 14 3 64 18 112 34 359 120 660
412 795 769 103 273 107 607 12 876 -162 459 -550 783 -1032 860 -67 11 -320
18 -329 10z m345 -62 c173 -30 334 -95 486 -197 294 -197 486 -503 541 -861 9
-63 6 -315 -5 -375 -99 -532 -503 -933 -1030 -1024 -115 -20 -338 -15 -450 9
-506 109 -890 507 -979 1015 -21 124 -15 358 13 475 126 526 532 892 1076 968
62 9 273 3 348 -10z"/>
<path d="M1100 2444 c-403 -73 -740 -351 -885 -729 -86 -224 -96 -507 -25
-745 106 -357 410 -663 765 -769 154 -46 363 -63 501 -41 96 16 115 21 206 51
326 109 566 339 711 679 66 154 93 421 61 606 -58 336 -249 617 -543 798 -95
58 -192 99 -317 131 -121 32 -351 41 -474 19z m700 -426 c-11 -29 -25 -62 -30
-73 -5 -11 -12 -30 -15 -42 -4 -15 -42 -44 -112 -86 -104 -63 -106 -64 -157
-55 -28 4 -71 11 -96 14 -25 3 -52 7 -60 9 -82 15 -106 19 -115 19 -15 1 -36
106 -22 112 28 10 594 152 609 153 16 1 16 -3 -2 -51z m-730 -155 c1 -10 3
-34 6 -54 5 -35 3 -37 -65 -87 -127 -93 -200 -210 -209 -338 -13 -192 118
-342 320 -367 15 -1 29 -5 32 -7 6 -7 14 -62 21 -155 4 -44 8 -84 8 -90 2 -11
-134 -13 -198 -3 -43 8 -139 39 -177 58 -99 52 -194 165 -225 269 -19 65 -24
171 -12 236 28 152 147 331 290 438 41 31 189 117 201 117 5 0 8 -8 8 -17z
m818 -464 c-23 -217 -162 -413 -386 -544 -35 -20 -65 -35 -66 -33 -2 1 -15 53
-29 113 -24 99 -25 111 -11 120 129 80 198 148 245 239 31 59 39 67 138 128
58 36 109 64 112 62 3 -1 1 -40 -3 -85z m-850 -932 c15 -12 16 -59 0 -75 -7
-7 -28 -12 -47 -12 -47 0 -64 -12 -59 -41 3 -22 7 -24 61 -22 40 1 57 -2 54
-10 -3 -11 -98 -18 -124 -9 -15 5 -17 60 -4 80 4 7 30 16 57 20 44 6 49 10 49
32 0 23 -4 25 -55 27 -67 2 -62 1 -55 12 7 13 106 11 123 -2z m204 -14 c31
-31 28 -111 -6 -139 -33 -29 -92 -26 -118 6 -20 25 -24 90 -7 121 21 41 95 47
131 12z m195 13 c42 -13 50 -112 14 -149 -24 -25 -83 -28 -110 -7 -27 19 -38
82 -22 123 16 41 58 52 118 33z m220 -8 c17 -14 26 -70 18 -107 -4 -20 -16
-36 -33 -44 -33 -15 -104 -16 -109 -1 -2 7 13 11 44 10 46 -1 83 18 83 44 0 8
-72 15 -82 8 -2 -1 -13 4 -25 11 -16 8 -23 21 -23 41 0 40 34 63 80 55 19 -4
41 -11 47 -17z"/>
<path d="M1139 442 c-23 -16 -26 -78 -4 -109 12 -17 23 -21 51 -18 48 4 59 22
54 85 -4 53 -55 74 -101 42z"/>
<path d="M1350 440 c-26 -26 -27 -83 -1 -109 14 -14 29 -18 52 -16 45 6 55 25
49 95 -2 32 -8 38 -47 45 -25 4 -38 0 -53 -15z"/>
<path d="M1568 449 c-10 -5 -18 -18 -18 -29 0 -10 8 -21 18 -24 29 -9 92 -3
92 9 0 35 -59 64 -92 44z"/>
</g>
</svg>
