<?xml version="1.0" standalone="no"?>
<!DOCTYPE svg PUBLIC "-//W3C//DTD SVG 20010904//EN"
 "http://www.w3.org/TR/2001/REC-SVG-20010904/DTD/svg10.dtd">
<svg version="1.0" xmlns="http://www.w3.org/2000/svg"
 width="260.000000pt" height="260.000000pt" viewBox="0 0 260.000000 260.000000"
 preserveAspectRatio="xMidYMid meet">
<metadata>
Created by potrace 1.11, written by Peter Selinger 2001-2013
</metadata>
<g transform="translate(0.000000,260.000000) scale(0.100000,-0.100000)"
fill="#000000" stroke="none">
<path d="M1254 2574 c-16 -14 -93 -77 -170 -140 l-142 -115 -38 15 c-96 37
-184 57 -203 46 -18 -9 -95 -95 -146 -163 l-20 -27 -103 32 c-99 31 -105 32
-117 15 -10 -14 -13 -105 -14 -422 0 -452 -2 -439 68 -433 l36 3 3 -94 c1 -52
8 -101 14 -108 15 -18 46 -16 117 6 42 13 61 15 62 7 0 -6 1 -47 1 -91 0 -44
3 -85 5 -92 9 -23 35 -22 116 3 109 35 153 58 197 105 l35 38 23 -49 c27 -59
90 -125 200 -210 45 -35 82 -68 83 -74 3 -46 0 -408 -3 -412 -3 -2 -212 -4
-466 -4 -400 -1 -463 -3 -477 -16 -18 -18 -18 -20 -5 -45 10 -19 32 -19 990
-19 958 0 980 0 990 19 13 25 13 27 -6 45 -13 14 -71 16 -476 15 -253 0 -462
1 -464 3 -3 4 -6 167 -5 329 l1 96 100 78 c107 83 148 127 185 201 l23 46 17
-26 c27 -41 102 -84 202 -116 119 -38 132 -33 131 50 0 19 0 58 1 86 l1 52 42
-15 c63 -21 117 -27 133 -13 11 9 15 36 15 106 l0 94 39 0 c73 0 70 -17 70
434 1 325 -2 406 -13 422 -13 18 -16 17 -103 -8 -49 -15 -96 -30 -105 -33 -11
-5 -25 7 -46 37 -16 24 -54 70 -84 102 l-54 60 -65 -18 c-35 -10 -88 -26 -118
-37 l-54 -18 -41 32 c-50 39 -54 42 -191 156 -60 50 -117 91 -126 91 -9 0 -29
-12 -45 -26z m203 -191 c168 -137 270 -233 310 -295 l26 -38 -36 -39 c-56 -62
-106 -158 -121 -235 -25 -122 -33 -181 -35 -273 l-1 -43 -300 0 -300 0 -1 43
c-4 225 -63 412 -161 514 l-31 32 29 42 c45 66 138 155 279 269 72 57 141 115
155 127 14 13 26 23 27 23 2 0 73 -57 160 -127z m-609 -110 c29 -7 28 -13 -14
-59 -20 -21 -47 -56 -61 -76 -14 -21 -27 -38 -30 -38 -12 0 -123 62 -123 68 0
5 25 38 55 74 l54 66 48 -15 c26 -8 58 -17 71 -20z m1076 -30 c31 -37 56 -71
56 -75 0 -7 -112 -68 -123 -68 -3 0 -16 17 -30 38 -14 20 -41 55 -61 76 -20
22 -36 43 -36 46 0 4 30 16 68 28 37 11 68 20 69 21 1 1 27 -29 57 -66z
m-1347 -152 c45 -18 92 -40 104 -50 l23 -18 -22 -54 c-42 -103 -75 -303 -77
-456 l0 -53 -112 0 -113 0 0 349 0 349 58 -18 c31 -9 94 -32 139 -49z m1643
-281 l0 -351 -112 3 -112 3 -2 55 c-6 174 -32 331 -73 440 -12 30 -21 60 -21
65 0 14 97 58 220 101 52 18 96 33 98 33 1 1 2 -157 2 -349z m-1416 128 c66
-89 102 -207 112 -370 l7 -108 -122 0 -123 0 7 113 c4 61 8 114 10 117 2 3 6
29 10 57 5 44 18 96 52 206 8 25 19 21 47 -15z m1051 -25 c11 -32 20 -60 21
-63 0 -3 5 -30 12 -60 17 -84 22 -126 28 -232 l5 -98 -121 0 -120 0 -1 28 c-1
15 -1 30 -1 33 1 3 4 38 7 78 7 79 8 84 26 156 19 79 94 215 117 215 5 0 17
-26 27 -57z m-1253 -562 c2 -15 2 -33 0 -40 -5 -14 -102 -62 -112 -56 -3 2 -6
30 -5 62 l0 58 45 5 c59 7 67 4 72 -29z m302 30 c16 -1 17 -7 13 -60 -12 -128
-51 -173 -199 -226 l-38 -14 0 149 c0 131 2 149 17 152 13 2 100 2 207 -1z
m689 -1 c4 0 6 -23 3 -52 -17 -171 -50 -229 -193 -343 -82 -65 -108 -81 -118
-72 -6 7 -29 26 -50 42 -181 141 -214 194 -230 362 -6 62 -6 62 22 65 21 2
504 1 566 -2z m324 -3 c2 -2 2 -69 1 -149 l-3 -145 -67 26 c-36 14 -78 35 -93
46 -36 28 -64 91 -71 163 l-7 61 69 3 c77 3 165 1 171 -5z m198 -58 c-1 -32
-3 -61 -6 -63 -3 -3 -28 5 -56 18 -47 22 -51 27 -55 65 -3 38 -2 40 27 43 16
2 44 1 61 0 30 -4 30 -4 29 -63z"/>
<path d="M861 221 c-7 -13 -6 -24 4 -37 13 -18 34 -19 431 -19 389 0 420 1
437 18 14 14 15 22 7 37 -10 19 -23 20 -440 20 -408 0 -430 -1 -439 -19z"/>
<path d="M1055 67 c-20 -11 -19 -53 1 -61 9 -3 123 -6 255 -6 l239 0 6 26 c4
15 2 30 -5 37 -14 14 -472 18 -496 4z"/>
</g>
</svg>
