<?xml version="1.0" standalone="no"?>
<!DOCTYPE svg PUBLIC "-//W3C//DTD SVG 20010904//EN"
 "http://www.w3.org/TR/2001/REC-SVG-20010904/DTD/svg10.dtd">
<svg version="1.0" xmlns="http://www.w3.org/2000/svg"
 width="16.000000pt" height="16.000000pt" viewBox="0 0 16.000000 16.000000"
 preserveAspectRatio="xMidYMid meet">
<metadata>
Created by potrace 1.11, written by Peter Selinger 2001-2013
</metadata>
<g transform="translate(0.000000,16.000000) scale(0.006154,-0.006154)"
fill="#000000" stroke="none">
<path d="M92 2574 c-26 -16 -50 -41 -63 -67 -21 -41 -21 -46 -21 -884 0 -817
0 -843 19 -880 12 -22 39 -50 64 -66 l45 -27 1163 0 1163 0 45 26 c31 18 51
39 64 67 18 40 19 81 19 883 l0 841 -23 43 c-16 30 -37 51 -67 67 l-43 23
-1161 0 -1161 0 -43 -26z"/>
<path d="M0 288 l0 -278 38 0 38 0 -1 215 c0 117 3 211 7 207 5 -5 74 -100
156 -212 l147 -205 43 -3 42 -3 0 275 c0 152 -3 276 -7 277 -5 0 -18 2 -31 3
-12 2 -26 -2 -30 -8 -5 -6 -8 -98 -8 -204 1 -107 -1 -198 -4 -202 -3 -5 -67
77 -143 183 -76 106 -144 200 -151 209 -8 11 -30 19 -55 21 l-41 3 0 -278z"/>
<path d="M793 562 c-28 -4 -35 -14 -63 -87 -13 -33 -31 -78 -41 -100 -9 -22
-40 -96 -68 -165 -28 -69 -58 -140 -66 -158 -8 -18 -15 -35 -15 -38 0 -3 19
-4 42 -2 l42 3 31 80 31 80 121 2 c87 2 123 -1 130 -10 5 -6 23 -45 39 -84
l29 -73 43 0 c23 0 42 4 42 9 0 5 -15 42 -34 83 -19 40 -57 127 -86 193 -29
66 -65 148 -81 183 -16 35 -29 67 -29 72 0 10 -37 17 -67 12z m27 -85 c0 -7
20 -63 45 -125 25 -61 45 -113 45 -114 0 -3 -150 -1 -187 1 -7 1 6 44 33 111
24 60 44 117 44 125 0 8 5 15 10 15 6 0 10 -6 10 -13z"/>
<path d="M1167 560 c-9 -4 -12 -73 -12 -275 l1 -270 37 -3 c30 -3 37 0 38 15
0 10 1 109 1 221 0 111 3 202 7 202 4 0 16 -26 27 -57 11 -32 47 -131 80 -221
l59 -162 36 0 36 0 84 225 84 225 3 -225 2 -225 39 0 38 0 0 275 c0 271 -1
275 -21 276 -38 3 -80 -1 -87 -9 -8 -9 -145 -379 -155 -416 -3 -14 -10 -28
-14 -31 -4 -2 -26 47 -48 110 -23 63 -61 167 -84 230 -23 63 -46 115 -52 116
-56 3 -89 3 -99 -1z"/>
<path d="M1805 562 c-3 -3 -5 -128 -5 -279 l0 -273 29 0 29 0 0 274 0 274 -24
5 c-13 2 -26 2 -29 -1z"/>
<path d="M1944 562 c-18 -3 -20 -8 -15 -35 l7 -32 66 2 c56 2 66 0 70 -15 2
-9 3 -119 2 -245 l-1 -227 29 0 28 0 0 98 c0 53 2 162 3 242 2 164 -8 147 95
149 51 1 52 2 52 31 0 17 -3 30 -7 31 -24 3 -311 4 -329 1z"/>
<path d="M2453 473 c-32 -54 -62 -106 -68 -116 -5 -9 -49 -84 -97 -165 -109
-185 -107 -182 -72 -178 31 3 53 31 94 115 17 35 31 51 45 52 79 4 158 3 164
-1 4 -3 7 -40 7 -83 1 -42 3 -79 5 -82 3 -2 14 -2 26 1 20 6 21 10 17 232 -1
125 -3 248 -3 275 -1 45 -2 47 -31 47 -27 0 -35 -9 -87 -97z m72 -101 l0 -127
-72 -1 c-40 -1 -73 0 -73 3 0 9 138 253 143 253 1 0 2 -57 2 -128z"/>
</g>
</svg>
