<svg xmlns="http://www.w3.org/2000/svg" viewBox="0 0 159.55 25.95"><defs><style>.cls-1,.cls-3{fill:#2dabe2;}.cls-2{fill:#faa21f;}.cls-3{fill-rule:evenodd;}</style></defs><title>logo</title><g id="Layer_2" data-name="Layer 2"><g id="Isolation_Mode" data-name="Isolation Mode"><path class="cls-1" d="M34,5.7a7.35,7.35,0,0,1,5.9,2.44,9.27,9.27,0,0,1,2,6.21,9.16,9.16,0,0,1-2,6.13,7.44,7.44,0,0,1-6,2.43h-4c-.87,0-1.3-.5-1.3-1.51V7.21c0-1,.43-1.51,1.3-1.51ZM30.44,7.05c-.24,0-.36.13-.36.41V21.15q0,.42.36.42h3.23a6.27,6.27,0,0,0,5-1.93,7.75,7.75,0,0,0,1.65-5.21A8.19,8.19,0,0,0,38.69,9a6.07,6.07,0,0,0-4.88-1.92Z"/><path class="cls-2" d="M6.26,6.46a1,1,0,0,1,1-.76,1,1,0,0,1,1,.76l6.17,15.19c.19.56.1,1-.28,1.18s-.77,0-1-.51l-1.65-4.11H3L1.39,22.32c-.24.51-.58.68-1,.51s-.48-.62-.3-1.18ZM11,16.87,7.27,7.55,3.54,16.87Z"/><path class="cls-2" d="M25.84,8A9.26,9.26,0,0,1,28,14.26a9.42,9.42,0,0,1-2.16,6.39,6.36,6.36,0,0,1-5.09,2.26,6.38,6.38,0,0,1-5.1-2.26,9.52,9.52,0,0,1-2.15-6.39A9.36,9.36,0,0,1,15.65,8a6.38,6.38,0,0,1,5.1-2.27A6.36,6.36,0,0,1,25.84,8Zm-9.11.92a8,8,0,0,0-1.65,5.37,8.13,8.13,0,0,0,1.65,5.46,5.07,5.07,0,0,0,4,1.85,5,5,0,0,0,4-1.85,8.08,8.08,0,0,0,1.66-5.46,8,8,0,0,0-1.66-5.37,5,5,0,0,0-4-1.84A5.06,5.06,0,0,0,16.73,8.89Z"/><path class="cls-1" d="M46.92,6.46a1,1,0,0,1,2,0L55.1,21.65c.19.56.1,1-.28,1.18s-.78,0-1-.51l-1.65-4.11H43.69L42,22.32c-.24.51-.58.68-1,.51s-.48-.62-.29-1.18Zm4.74,10.41L47.92,7.55,44.2,16.87Z"/><path class="cls-2" d="M61.5,6.09c0-.61.24-.92.71-.92s.72.31.72.92v6.55H72.7V6.09c0-.61.24-.92.71-.92s.72.31.72.92V21.45q0,.93-.72.93c-.47,0-.71-.31-.71-.93V14H62.93v7.47q0,.93-.72.93c-.47,0-.71-.31-.71-.93Z"/><path class="cls-2" d="M102.52,6.09c0-.61.24-.92.72-.92s.71.31.71.92V15.5a6.14,6.14,0,0,0,1.3,4.11,5.25,5.25,0,0,0,7.18,0,6.13,6.13,0,0,0,1.29-4.11V6.09c0-.61.24-.92.72-.92s.71.31.71.92V15.5a7.38,7.38,0,0,1-1.51,4.95,6.95,6.95,0,0,1-9.61,0,7.38,7.38,0,0,1-1.51-4.95Z"/><path class="cls-2" d="M126.77,6.93a4.65,4.65,0,0,1,.93,1.68c.1.56,0,.92-.43,1.09a.66.66,0,0,1-.86-.42,5,5,0,0,0-.87-1.51c-.62-.84-1.77-1.26-3.44-1.26s-2.83.36-3.44,1.09a3,3,0,0,0-.86,1.93,2.23,2.23,0,0,0,.5,1.52,4,4,0,0,0,2.22,1.25l4,.93a5.06,5.06,0,0,1,2.73,1.59,4.54,4.54,0,0,1,1.07,3,4.24,4.24,0,0,1-1,2.85c-1,1.12-2.61,1.68-5,1.68s-4.16-.7-5.17-2.1a8.64,8.64,0,0,1-1.15-2.1.78.78,0,0,1,.36-1.09.72.72,0,0,1,1,.5,6.41,6.41,0,0,0,.93,1.85,4.74,4.74,0,0,0,4,1.59c1.81,0,3.11-.44,3.87-1.34a2.94,2.94,0,0,0,0-3.69,3.65,3.65,0,0,0-2-1.26l-4-.92a5.31,5.31,0,0,1-3-1.69,3.86,3.86,0,0,1-.93-2.6,4.37,4.37,0,0,1,1.22-2.85c.86-1,2.35-1.51,4.44-1.51C124.27,5.17,125.86,5.75,126.77,6.93Z"/><path class="cls-2" d="M129.19,6.09c0-.61.24-.92.71-.92s.72.31.72.92V21.45c0,.62-.23.93-.72.93s-.71-.31-.71-.93Z"/><path class="cls-2" d="M132,6.26c0-.73.34-1.09,1-1.09a1.5,1.5,0,0,1,.79.17,2.27,2.27,0,0,1,.71.67l8.68,13.43V6.09c0-.61.24-.92.73-.92s.71.31.71.92V21.45c0,.62-.24.93-.71.93a1,1,0,0,1-.79-.5l-9.69-15v14.6q0,.93-.72.93t-.72-.93Z"/><path class="cls-2" d="M156.39,5.92a7.8,7.8,0,0,1,2.51,2.44,1.11,1.11,0,0,1-.15,1.42c-.43.29-.82.15-1.14-.42a8.18,8.18,0,0,0-1.87-2.09,4.38,4.38,0,0,0-2.81-.76,5.58,5.58,0,0,0-4.3,2.18,7.68,7.68,0,0,0-1.58,5.13,7.76,7.76,0,0,0,1.72,5.2,5.47,5.47,0,0,0,4.31,2,4.85,4.85,0,0,0,3.52-1.5,4.66,4.66,0,0,0,1.51-3.37v-1q0-.42-.36-.42h-5.39c-.42,0-.64-.22-.64-.68a.58.58,0,0,1,.64-.67h5.89c.86,0,1.3.51,1.3,1.52v6.54q0,.93-.72.93t-.72-.93v-2.1a5.77,5.77,0,0,1-5.38,3,6.52,6.52,0,0,1-5.17-2.44,9.07,9.07,0,0,1-2.09-6.12,9.08,9.08,0,0,1,2.09-6.13,6.71,6.71,0,0,1,5.32-2.52A7.25,7.25,0,0,1,156.39,5.92Z"/><rect class="cls-2" x="85.14" y="11.37" width="2.8" height="2.88"/><rect class="cls-2" x="88.56" y="11.37" width="2.8" height="2.88"/><rect class="cls-2" x="85.14" y="14.89" width="2.8" height="2.89"/><rect class="cls-2" x="88.56" y="14.89" width="2.8" height="2.89"/><path class="cls-1" d="M87.52,2.8A12.33,12.33,0,0,1,99.64,15.33,12.68,12.68,0,0,1,97.08,23,13.07,13.07,0,0,0,101.73,13,12.76,12.76,0,0,0,89.18,0,12.58,12.58,0,0,0,77.47,8.29,12.05,12.05,0,0,1,87.52,2.8Z"/><path class="cls-1" d="M88.94,23.16A12.34,12.34,0,0,1,76.87,10.57a12.74,12.74,0,0,1,2.59-7.69,13.11,13.11,0,0,0-4.69,10.05A12.77,12.77,0,0,0,87.26,26,12.58,12.58,0,0,0,99,17.71,12,12,0,0,1,88.94,23.16Z"/><path class="cls-2" d="M79.47,10.13a9,9,0,0,0-.25,1.94l9-6.21,9,6.21A9,9,0,0,0,97,10.13l-8.78-6Z"/><path class="cls-3" d="M58.66,10.47a2.56,2.56,0,0,0,0,.86,2.29,2.29,0,0,1,.14.7c-.06.48,0,1-.06,1.48s-.23.73-.3,1.11a1.64,1.64,0,0,1-.1.38A11.72,11.72,0,0,1,56.79,18a13.25,13.25,0,0,0-.92,1.42,1.94,1.94,0,0,0-.12.6c0,.09.07.05.1,0a2,2,0,0,0,.16-.24,6.41,6.41,0,0,1,1-1.34,10.7,10.7,0,0,0,1.21-1.8,5.74,5.74,0,0,0,.89-2.56,5.9,5.9,0,0,1,.23-1h.06a2.85,2.85,0,0,1,0,.41c0,.48-.1.95-.16,1.43-.16,1.17-.37,2.34-.48,3.51-.1,1-.11,2-.12,3a2.08,2.08,0,0,0,.22.65c.06.13.12.26-.07.36s-.06.13-.06.2a1.1,1.1,0,0,0,0,.24c-.6-.43-1.08-.72-1.39-1a4.14,4.14,0,0,0-.81-.44c-.09,0,.5.57.58.63.59.41,2.24,1.18,2,.88a1,1,0,0,1-.08-.18c-.09-.2-.09-.36.21-.38a1.75,1.75,0,0,1-.07-.44c.09-1.22.15-2.46.3-3.68a21.58,21.58,0,0,0,.12-4.95c0-.14-.14-.27-.22-.41s-.51-2.35-.51-2.41Z"/><path class="cls-3" d="M59.6,6.52c-.66-.77-1.05-.79-1.17-1.26a1.92,1.92,0,0,1-.12-.33c.35.09,1.87.85,2,.88a6.75,6.75,0,0,0-.58-1.12c-.9-1.36-.8-1.22-1.5-2.3,0-.06-1.78,0-2.82-.14,0,0-1.06-.08-1.11-.06-.3.11.1.19.3.43.47.41,2.87,2.08,3,2.15s.44.69.64,1,1.13.8,1.34,1S60.11,7,59.6,6.52Z"/><path class="cls-3" d="M52.46,18.08a1.35,1.35,0,0,0,.19.16,3,3,0,0,1,1,1.15,3.48,3.48,0,0,0,1.44,1.22.83.83,0,0,0,.22,0l0-.07c-.05,0-.09-.11-.14-.13a2.4,2.4,0,0,1-1.17-1.2,2.89,2.89,0,0,0-1.3-1.15,2.45,2.45,0,0,0-.29-.08A.64.64,0,0,1,52.46,18.08Z"/><path class="cls-3" d="M56.46,9.83s-2,6.8-4.44,7.42a6,6,0,0,0,3.21-2.72S56.61,10.62,56.46,9.83Z"/><path class="cls-3" d="M58.35,4.89c.35.09,1.87.85,2,.88a5.91,5.91,0,0,0-.57-1.12c-.9-1.37-.81-1.22-1.51-2.3,0-.07-1.77,0-2.82-.14,0,0-1.06-.08-1.11-.06-.29.1.1.19.3.43A31.57,31.57,0,0,0,58.35,4.89Z"/><path class="cls-3" d="M59.08,6c.1.42.59.87.62,1.16a1.33,1.33,0,0,1-.39,1,4.59,4.59,0,0,0-.68,2.43h.24a7.81,7.81,0,0,1,.15-1,3.59,3.59,0,0,1,.56-1.32C60.34,7.42,60.16,7,59.08,6Z"/></g></g></svg>