<?xml version="1.0" encoding="utf-8"?>
<!-- Generator: Adobe Illustrator 22.0.1, SVG Export Plug-In . SVG Version: 6.00 Build 0)  -->
<svg version="1.1" id="Layer_1" xmlns="http://www.w3.org/2000/svg" xmlns:xlink="http://www.w3.org/1999/xlink" x="0px" y="0px"
	 viewBox="0 0 273.2 67.1" style="enable-background:new 0 0 273.2 67.1;" xml:space="preserve">
<style type="text/css">
	.st0{fill:#009AAC;}
	.st1{fill:url(#SVGID_1_);}
	.st2{fill:url(#SVGID_2_);}
	.st3{fill:url(#SVGID_3_);}
</style>
<g>
	<g>
		<g>
			<g>
				<path class="st0" d="M60.2,43.9c-0.1,0-0.2,0-0.2-0.1c-0.1-0.1-0.1-0.1-0.1-0.2V18.2c0-0.1,0-0.1,0.1-0.2s0.2-0.1,0.2-0.1h3.2
					c0.1,0,0.2,0,0.2,0.1c0.1,0.1,0.1,0.1,0.1,0.2v21.9h9.2c0.1,0,0.2,0,0.2,0.1c0.1,0.1,0.1,0.1,0.1,0.2v3.2c0,0.1,0,0.2-0.1,0.2
					c-0.1,0.1-0.1,0.1-0.2,0.1C72.9,43.9,60.2,43.9,60.2,43.9z"/>
				<path class="st0" d="M83.7,43.9c-1.1,0-2.1-0.2-3-0.7s-1.7-1.1-2.3-1.9c-0.4-0.6-0.8-1.2-1.1-2C77.1,38.7,77,38,77,37.2V24.9
					c0-0.8,0.1-1.5,0.4-2.3c0.3-0.7,0.6-1.4,1.1-2c0.6-0.8,1.4-1.4,2.3-1.8s1.9-0.7,3-0.7s2.1,0.2,3,0.7c0.9,0.4,1.7,1.1,2.3,1.8
					c0.4,0.6,0.8,1.2,1.1,2c0.3,0.7,0.4,1.5,0.4,2.3v12.3c0,0.8-0.1,1.5-0.4,2.2s-0.6,1.4-1.1,2c-0.6,0.8-1.4,1.4-2.3,1.9
					C85.8,43.7,84.8,43.9,83.7,43.9z M83.7,22c-0.8,0-1.5,0.3-2.1,0.8c-0.6,0.6-0.8,1.2-0.8,2v12.3c0,0.8,0.3,1.5,0.8,2
					c0.6,0.6,1.3,0.8,2.1,0.8c0.8,0,1.5-0.3,2-0.8c0.6-0.6,0.8-1.2,0.8-2V24.9c0-0.8-0.3-1.5-0.8-2C85.2,22.3,84.5,22,83.7,22z"/>
				<path class="st0" d="M99.8,44c-0.1,0-0.2,0-0.2-0.1c-0.1-0.1-0.1-0.1-0.1-0.2V22H95c-0.1,0-0.2,0-0.2-0.1
					c-0.1-0.1-0.1-0.1-0.1-0.2v-3.2c0-0.1,0-0.1,0.1-0.2s0.2-0.1,0.2-0.1h12.8c0.1,0,0.2,0,0.2,0.1c0.1,0.1,0.1,0.1,0.1,0.2v3.2
					c0,0.1,0,0.2-0.1,0.2c-0.1,0.1-0.1,0.1-0.2,0.1h-4.5v21.7c0,0.1,0,0.2-0.1,0.2c-0.1,0.1-0.1,0.1-0.2,0.1H99.8z"/>
				<path class="st0" d="M119.9,43.9c-0.9,0-1.8-0.2-2.6-0.5c-0.8-0.4-1.5-0.8-2.2-1.4c-0.6-0.6-1.1-1.3-1.5-2.1s-0.5-1.7-0.5-2.6
					V18.4c0-0.1,0-0.1,0.1-0.2s0.2-0.1,0.2-0.1h3.2c0.1,0,0.2,0,0.2,0.1c0.1,0.1,0.1,0.1,0.1,0.2v18.8c0,0.8,0.3,1.5,0.8,2
					c0.6,0.6,1.3,0.8,2.1,0.8c0.8,0,1.5-0.3,2-0.8c0.6-0.6,0.9-1.2,0.9-2V18.4c0-0.1,0-0.1,0.1-0.2s0.2-0.1,0.2-0.1h3.2
					c0.1,0,0.2,0,0.2,0.1c0.1,0.1,0.1,0.1,0.1,0.2v18.8c0,0.9-0.2,1.8-0.5,2.6c-0.4,0.8-0.8,1.5-1.4,2.1s-1.3,1.1-2.1,1.4
					C121.7,43.8,120.8,43.9,119.9,43.9z"/>
				<path class="st0" d="M138.7,43.9c-0.4,0-0.8,0-1.2-0.1s-0.8-0.2-1.2-0.3c-1.3-0.5-2.3-1.3-3.1-2.4c-0.8-1.1-1.2-2.4-1.2-3.9
					v-1.5c0-0.1,0-0.2,0.1-0.2c0.1-0.1,0.1-0.1,0.2-0.1h3.2c0.1,0,0.2,0,0.3,0.1s0.1,0.1,0.1,0.2v1.5c0,0.8,0.3,1.5,0.8,2
					c0.6,0.6,1.2,0.8,2,0.8s1.5-0.3,2-0.9c0.6-0.6,0.8-1.2,0.8-2v-1.3c0-0.8-0.3-1.5-0.8-2c-0.6-0.6-1.2-0.9-2.1-0.9
					c-0.9,0-1.7-0.1-2.4-0.4c-0.5-0.2-1-0.4-1.4-0.7s-0.8-0.6-1.1-1c-0.6-0.6-1-1.3-1.3-2.1c-0.3-0.8-0.5-1.6-0.5-2.5v-1.3
					c0-1.4,0.4-2.8,1.2-3.9s1.9-1.9,3.1-2.4c0.7-0.3,1.5-0.4,2.4-0.4s1.7,0.1,2.4,0.4c1.3,0.5,2.3,1.3,3.2,2.4
					c0.8,1.1,1.2,2.4,1.2,3.9v1.3c0,0.2-0.1,0.2-0.3,0.2h-3.2c-0.1,0-0.2,0-0.2-0.1c-0.1-0.1-0.1-0.1-0.1-0.2v-1.2
					c0-0.8-0.3-1.5-0.8-2c-0.6-0.6-1.2-0.9-2.1-0.9c-0.8,0-1.5,0.3-2,0.9c-0.6,0.6-0.8,1.3-0.8,2v1.3c0,0.8,0.3,1.5,0.9,2.1
					c0.6,0.6,1.2,0.8,2,0.8c0.9,0,1.7,0.1,2.4,0.4c1,0.4,1.9,0.9,2.6,1.7c0.6,0.6,1,1.3,1.3,2c0.3,0.8,0.5,1.6,0.5,2.5V37
					c0,1.4-0.4,2.8-1.2,3.9c-0.8,1.1-1.9,1.9-3.1,2.4c-0.4,0.1-0.8,0.2-1.2,0.3C139.5,43.9,139.1,43.9,138.7,43.9z"/>
				<path class="st0" d="M163.3,44c-0.4,0-0.8,0-1.2-0.1s-0.8-0.2-1.2-0.3c-1.2-0.5-2.3-1.3-3.1-2.4c-0.8-1.1-1.2-2.4-1.2-3.8v-1.5
					l0.2-0.2h3.3l0.2,0.2v1.5c0,0.8,0.3,1.5,0.9,2.1c0.6,0.6,1.3,0.9,2.1,0.9c0.9,0,1.6-0.3,2.2-0.9c0.6-0.6,0.9-1.3,0.9-2.1V36
					c0-0.8-0.3-1.5-0.9-2.2c-0.6-0.6-1.3-0.9-2.2-0.9s-1.7-0.1-2.4-0.4c-0.5-0.2-1-0.4-1.4-0.7s-0.8-0.6-1.1-1
					c-0.6-0.6-1-1.3-1.3-2.1c-0.3-0.8-0.5-1.6-0.5-2.5v-1.4c0-1.4,0.4-2.7,1.2-3.8c0.8-1.1,1.9-1.9,3.1-2.4c0.7-0.3,1.5-0.4,2.4-0.4
					s1.7,0.1,2.4,0.4c1.3,0.5,2.3,1.3,3.1,2.4s1.2,2.4,1.2,3.8v1.3c0,0.1,0,0.1-0.2,0.1h-3.3l-0.2-0.2v-1.2c0-0.8-0.3-1.5-0.9-2.2
					c-0.6-0.6-1.3-0.9-2.2-0.9c-0.8,0-1.5,0.3-2.1,0.9s-0.9,1.3-0.9,2.2v1.4c0,0.8,0.3,1.6,0.9,2.2c0.6,0.6,1.3,0.9,2.1,0.9
					c0.9,0,1.7,0.1,2.4,0.4c1,0.4,1.8,0.9,2.6,1.7c0.6,0.6,1,1.3,1.3,2c0.3,0.8,0.5,1.6,0.5,2.5v1.3c0,1.4-0.4,2.7-1.2,3.8
					s-1.9,1.9-3.1,2.4c-0.4,0.1-0.8,0.2-1.2,0.3C164.1,43.9,163.7,44,163.3,44z"/>
				<polygon class="st0" points="175.2,44 175,43.8 175,18.3 175.2,18.1 188.3,18.1 188.5,18.3 188.5,21.6 188.3,21.8 178.6,21.8 
					178.6,29.7 186.1,29.7 186.3,30 186.3,33.2 186.1,33.4 178.6,33.4 178.6,40.3 188.3,40.3 188.5,40.5 188.5,43.8 188.3,44 				
					"/>
				<path class="st0" d="M203.6,44l-0.2-0.1v-7.8c0-0.9-0.3-1.6-0.9-2.2c-0.6-0.6-1.3-0.9-2.1-0.9h-3.1v10.8l-0.2,0.2h-3.2
					c-0.2-0.3-0.2-3.1-0.2-7.1V20.1c0-1.1,0-1.7,0.1-1.9h7c0.3,0,0.7,0.1,1,0.1c0.3,0.1,0.7,0.2,1,0.3c1.3,0.5,2.3,1.3,3.1,2.4
					s1.2,2.4,1.2,3.8v1.4c0,0.2,0,0.4,0,0.6l-0.1,0.7v0.1l0,0v0.2l0,0l-0.1,0.1v0.2l-0.1,0.1v0.1c0,0.1,0,0.1,0,0.2l-0.1,0.1v0.2
					c-0.1,0.1-0.1,0.2-0.1,0.3l0,0l0,0l-0.1,0.1v0.2l0,0v-0.1l-0.1,0.1l-0.1,0.1L206,30l-0.1,0.1l-0.1,0.2c-0.1,0.2-0.2,0.3-0.3,0.4
					l-0.6,0.6l0.3,0.4c0.6,0.6,1,1.3,1.3,2.1s0.5,1.6,0.5,2.5v7.9l-0.2,0.1h-3.2V44z M197.3,29.3h3c0.8,0,1.6-0.3,2.2-0.9
					c0.1-0.1,0.2-0.2,0.2-0.3l0.1-0.2l0.1-0.2l0,0c0,0,0,0,0.1-0.1l0.1-0.1l0,0l0.1-0.1v-0.1l0.1-0.1V27c0-0.1,0.1-0.2,0.1-0.2v-0.1
					l0,0v-1.8c0-0.8-0.3-1.5-0.9-2.1c-0.6-0.6-1.3-0.9-2.2-0.9h-3L197.3,29.3L197.3,29.3z"/>
				<path class="st0" d="M212.9,44l-0.1-0.2V18.3l0.2-0.2h3.3l0.2,0.2v22h3c0.8,0,1.5-0.3,2.1-0.9c0.6-0.6,0.9-1.3,0.9-2.1v-19
					l0.2-0.1h3.3l0.2,19.2c0,0.7-0.1,1.4-0.3,2s-0.5,1.2-0.9,1.8c-0.4,0.5-0.8,1-1.4,1.4c-0.5,0.4-1.1,0.7-1.7,0.9
					c-0.3,0.1-0.6,0.2-1,0.3c-0.3,0.1-0.7,0.1-1,0.1L212.9,44L212.9,44z"/>
				<polygon class="st0" points="232.4,44 232.2,43.8 232.2,18.3 232.4,18.1 235.6,18.1 235.9,18.3 235.9,43.8 235.6,44 				"/>
				<path class="st0" d="M247.8,44c-0.9,0-1.8-0.2-2.6-0.5c-0.8-0.4-1.5-0.8-2.1-1.4c-0.6-0.6-1.1-1.3-1.4-2.1
					c-0.4-0.8-0.5-1.7-0.5-2.6V24.9c0-0.9,0.2-1.8,0.5-2.6c0.4-0.8,0.8-1.5,1.4-2.1c0.6-0.6,1.3-1.1,2.1-1.4
					c0.8-0.4,1.7-0.5,2.6-0.5c0.9,0,1.8,0.2,2.6,0.5c0.8,0.4,1.5,0.8,2.1,1.5c0.6,0.6,1.1,1.3,1.5,2.1c0.4,0.8,0.5,1.7,0.5,2.6v2
					l-0.2,0.1H251l-0.2-0.2V25c0-0.8-0.3-1.5-0.9-2.1c-0.6-0.6-1.3-0.9-2.1-0.9s-1.6,0.3-2.2,0.9c-0.6,0.6-0.9,1.3-0.9,2.1v12.3
					c0,0.8,0.3,1.6,0.9,2.2c0.6,0.6,1.3,0.9,2.2,0.9c0.8,0,1.5-0.3,2.1-0.9c0.6-0.6,0.9-1.3,0.9-2.2v-0.9l0.2-0.2h3.3l0.2,0.1v1
					c0,0.9-0.2,1.8-0.5,2.6c-0.4,0.8-0.8,1.5-1.5,2.1c-0.6,0.6-1.3,1.1-2.1,1.5C249.5,43.8,248.7,44,247.8,44z"/>
				<polygon class="st0" points="259.9,44 259.7,43.8 259.7,18.3 259.9,18.1 273,18.1 273.2,18.3 273.2,21.6 273,21.8 263.3,21.8 
					263.3,29.7 270.8,29.7 271,30 271,33.2 270.8,33.4 263.3,33.4 263.3,40.3 273,40.3 273.2,40.5 273.2,43.8 273,44 				"/>
			</g>
		</g>
		<g>
			
				<linearGradient id="SVGID_1_" gradientUnits="userSpaceOnUse" x1="21.75" y1="57.6742" x2="21.75" y2="-4.6719" gradientTransform="matrix(1 0 0 -1 0 69)">
				<stop  offset="0" style="stop-color:#F4979F"/>
				<stop  offset="1" style="stop-color:#009AAC"/>
			</linearGradient>
			<path class="st1" d="M24.7,36.8c2-1.5,3.7-2.8,4.5-5.6c1.1,2.2,3.2,2.8,6,3.7l0.6,0.2c0.1,0,0.2,0,0.2,0c0.2,0,0.3-0.1,0.5-0.2
				c0.2-0.2,0.3-0.4,0.3-0.6v-4c0.9,0.5,2,0.9,3.4,0.9c0.4,0,0.8-0.4,0.8-0.8v-3.8h1.5c0.4,0,0.8-0.4,0.8-0.8V8.5
				c0-0.3-0.1-0.5-0.3-0.6c-0.2-0.2-0.5-0.2-0.7-0.1c-1.5,0.5-2.9,0.9-4.1,1.3C37.4,7.3,35,4.9,35,4.9c-0.2-0.2-0.5-0.3-0.7-0.2
				c-2.1,0.5-3.9,1.2-4.7,1.5c-0.9-0.8-1.8-1.5-2.8-2.3c-1.4-1.1-2.8-2.3-4.4-3.6c-0.3-0.3-0.8-0.3-1.1,0c-1.6,1.4-3,2.5-4.4,3.6
				c-1,0.8-1.9,1.6-2.8,2.3c-0.8-0.3-2.6-1-4.7-1.5C9,4.6,8.7,4.7,8.5,4.9c0,0-2.4,2.4-3.3,4.1C3.9,8.6,2.5,8.2,1,7.7
				c-0.2-0.1-0.5,0-0.7,0.1C0.1,8,0,8.2,0,8.5v17.2c0,0.4,0.4,0.8,0.8,0.8h1.5v3.8c0,0.4,0.4,0.8,0.8,0.8c1.4,0,2.6-0.5,3.4-0.9v4
				c0,0.3,0.1,0.5,0.3,0.6C7,35,7.2,35,7.4,35c0.1,0,0.2,0,0.2,0l0.6-0.2c2.8-0.8,4.8-1.5,6-3.7c0.9,2.8,2.5,4.1,4.5,5.6
				c0.7,0.5,1.4,1.1,2.2,1.8v9.4H0.8c-0.4,0-0.8,0.4-0.8,0.8s0.4,0.8,0.8,0.8h41.9c0.4,0,0.8-0.4,0.8-0.8s-0.4-0.8-0.8-0.8H22.5
				v-9.4C23.3,37.8,24,37.3,24.7,36.8z M35.3,24.9h-5.4c0.1-6,1.2-9.3,3.4-11.4C34.5,16.2,35.2,19.7,35.3,24.9z M29.9,26.5h5.4v6.6
				C31.6,32,30.1,31.4,29.9,26.5z M39.5,29.4c-1.2-0.2-2.2-0.8-2.6-1.1v-1.8h2.6V29.4z M41.9,24.9h-5c-0.1-5.7-0.9-9.5-2.3-12.4
				c1.8-1.2,4.2-2,7.2-2.9L41.9,24.9L41.9,24.9z M34.2,6.4c1.2,1.2,2.1,2.5,2.6,3.2c-1.1,0.4-2,0.9-2.9,1.5c-0.9-1.4-1.9-2.6-3-3.7
				C31.7,7.1,32.8,6.7,34.2,6.4z M17.8,5.1c1.2-0.9,2.5-2,3.9-3.2c1.4,1.2,2.7,2.3,3.9,3.2c2.9,2.3,5.2,4.2,6.9,6.9
				c-2.7,2.3-4.1,6-4.2,12.9H15.2C15,18,13.6,14.4,10.9,12C12.6,9.3,14.9,7.4,17.8,5.1z M10.1,13.5c2.2,2.1,3.3,5.4,3.4,11.4H8.2
				C8.2,19.7,8.9,16.2,10.1,13.5z M9.3,6.4c1.3,0.3,2.5,0.7,3.3,1c-1.2,1.1-2.2,2.3-3,3.7c-0.9-0.6-1.8-1-2.9-1.5
				C7.2,8.8,8.1,7.6,9.3,6.4z M1.6,9.6c3,0.9,5.4,1.7,7.2,2.9c-1.4,2.9-2.2,6.7-2.3,12.4h-5V9.6H1.6z M3.9,29.4v-2.9h2.6v1.8
				C6.1,28.6,5.1,29.2,3.9,29.4z M8.2,33.1v-6.6h5.4C13.4,31.4,11.9,32,8.2,33.1z M15.2,26.5h13.1c-0.1,5.6-1.7,6.8-4.5,9
				c-0.6,0.5-1.3,1-2,1.6c-0.7-0.6-1.4-1.1-2-1.6C16.9,33.3,15.3,32.1,15.2,26.5z"/>
			
				<linearGradient id="SVGID_2_" gradientUnits="userSpaceOnUse" x1="21.75" y1="57.6742" x2="21.75" y2="-4.6719" gradientTransform="matrix(1 0 0 -1 0 69)">
				<stop  offset="0" style="stop-color:#F4979F"/>
				<stop  offset="1" style="stop-color:#009AAC"/>
			</linearGradient>
			<path class="st2" d="M30.6,51.5H12.9c-0.4,0-0.8,0.4-0.8,0.8s0.4,0.8,0.8,0.8h17.7c0.4,0,0.8-0.4,0.8-0.8S31,51.5,30.6,51.5z"/>
			
				<linearGradient id="SVGID_3_" gradientUnits="userSpaceOnUse" x1="21.75" y1="57.6742" x2="21.75" y2="-4.6719" gradientTransform="matrix(1 0 0 -1 0 69)">
				<stop  offset="0" style="stop-color:#F4979F"/>
				<stop  offset="1" style="stop-color:#009AAC"/>
			</linearGradient>
			<path class="st3" d="M26.6,55.1h-9.7c-0.4,0-0.8,0.4-0.8,0.8s0.4,0.8,0.8,0.8h9.7c0.4,0,0.8-0.4,0.8-0.8S27,55.1,26.6,55.1z"/>
		</g>
	</g>
</g>
</svg>
