<?xml version="1.0" encoding="utf-8"?>
<!-- Generator: Adobe Illustrator 22.0.1, SVG Export Plug-In . SVG Version: 6.00 Build 0)  -->
<svg version="1.1" id="Layer_1" xmlns="http://www.w3.org/2000/svg" xmlns:xlink="http://www.w3.org/1999/xlink" x="0px" y="0px"
	 viewBox="0 0 64 57" style="enable-background:new 0 0 64 57;" xml:space="preserve">
<style type="text/css">
	.st0{fill:#FFFFFF;}
</style>
<g>
	<g>
		<polygon class="st0" points="20.7,32.6 14.7,26.8 13.2,28.4 20.8,35.6 33.2,23.1 31.7,21.6 		"/>
		<path class="st0" d="M40.1,11.8h-36c-2.2,0-4.1,1.8-4.1,4.1v25.8c0,2.2,1.8,4.1,4.1,4.1h1.8v11.2l11.2-11.2h23
			c2.2,0,4.1-1.8,4.1-4.1V15.9C44.1,13.7,42.3,11.8,40.1,11.8z M42,41.7c0,1.1-0.9,2-2,2H16.2L8,51.8v-8.2H4.1c-1.1,0-2-0.9-2-2
			V15.9c0-1.1,0.9-2,2-2h36c1.1,0,2,0.9,2,2V41.7z"/>
	</g>
	<path class="st0" d="M60.6,0.1H30.4c-1.9,0-3.4,1.5-3.4,3.4v21.6c0,1.9,1.5,3.4,3.4,3.4h19.3l9.4,9.4v-9.4h1.5
		c1.9,0,3.4-1.5,3.4-3.4V3.5C64,1.6,62.5,0.1,60.6,0.1z M62.2,25.1c0,0.9-0.7,1.6-1.6,1.6h-3.3v6.9l-6.9-6.9h-20
		c-0.9,0-1.6-0.7-1.6-1.6V3.5c0-0.9,0.7-1.6,1.6-1.6h30.2c0.9,0,1.6,0.7,1.6,1.6V25.1z"/>
</g>
</svg>
