<?xml version="1.0" encoding="utf-8"?>
<!-- Generator: Adobe Illustrator 22.0.1, SVG Export Plug-In . SVG Version: 6.00 Build 0)  -->
<svg version="1.1" id="Layer_1" xmlns="http://www.w3.org/2000/svg" xmlns:xlink="http://www.w3.org/1999/xlink" x="0px" y="0px"
	 viewBox="0 0 64 94" style="enable-background:new 0 0 64 94;" xml:space="preserve">
<style type="text/css">
	.st0{fill:#FFFFFF;}
</style>
<g>
	<path class="st0" d="M64,9.5H47.6V3h-3.1V0.1H32.3V3h-3.6l0.2,6.4h-17v58.1C5.2,68.2,0,73.8,0,80.7c0,7.3,5.9,13.2,13.2,13.2
		c7.2,0,13.1-5.8,13.2-13H64V9.5z M46.6,10.6l1.7,5.8h-1.4c-0.3-0.6-1.2-1.9-2.5-3.3c-1-1-2-1.9-3-2.5H46.6z M33.4,1.2h10V3h-10V1.2
		z M33.4,4.1h10v2h-10V4.1z M29.9,4.1h2.4v3.1h12.2V4.1h2v5.3h-8.2c-0.2,0-0.4,0-0.6,0c-0.2,0-0.3,0-0.5,0H30L29.9,4.1z M34.2,10.6
		c-1.7,1.1-3.3,3-4.8,5.8h-1l1.4-5.8H34.2z M13.2,92.8c-6.7,0-12.1-5.4-12.1-12.1c0-6.2,4.7-11.4,10.8-12v12.2h1.9l-3.3,3.3l-3.2-3
		c-0.2-0.2-0.6-0.2-0.8,0c-0.2,0.2-0.2,0.6,0,0.8l3.9,3.7l4.9-4.9h10C25.2,87.4,19.8,92.8,13.2,92.8z M19.8,75.6
		c-0.2-0.2-0.6-0.2-0.8,0l-4.2,4.2H13V68.6c0.1,0,0.1,0,0.2,0c6.4,0,11.6,4.9,12.1,11.2h-8.8l3.4-3.4C20,76.2,20,75.8,19.8,75.6z
		 M62.9,79.8H26.4c-0.5-6.9-6.2-12.3-13.2-12.3c-0.1,0-0.1,0-0.2,0V10.6h15.8L27,17.4h3l0.2-0.3c2.2-4.1,4.6-6.3,7.1-6.6h0.9
		c4.4,0.4,7.8,6.5,7.9,6.6l0.2,0.3h3.5l-2.1-6.9h15.2V79.8z"/>
	<path class="st0" d="M22.5,30.2c0,0.3,0.2,0.6,0.6,0.6h30.6c0.3,0,0.6-0.2,0.6-0.6s-0.2-0.6-0.6-0.6H23.1
		C22.8,29.6,22.5,29.9,22.5,30.2z"/>
	<path class="st0" d="M53.7,39.8H23.1c-0.3,0-0.6,0.2-0.6,0.6c0,0.3,0.2,0.6,0.6,0.6h30.6c0.3,0,0.6-0.2,0.6-0.6
		C54.2,40.1,54,39.8,53.7,39.8z"/>
	<path class="st0" d="M53.7,50.1H23.1c-0.3,0-0.6,0.2-0.6,0.6c0,0.3,0.2,0.6,0.6,0.6h30.6c0.3,0,0.6-0.2,0.6-0.6
		C54.2,50.3,54,50.1,53.7,50.1z"/>
	<path class="st0" d="M53.7,60.3H23.1c-0.3,0-0.6,0.2-0.6,0.6c0,0.3,0.2,0.6,0.6,0.6h30.6c0.3,0,0.6-0.2,0.6-0.6
		C54.2,60.5,54,60.3,53.7,60.3z"/>
</g>
</svg>
