<?xml version="1.0" encoding="utf-8"?>
<!-- Generator: Adobe Illustrator 22.0.1, SVG Export Plug-In . SVG Version: 6.00 Build 0)  -->
<svg version="1.1" id="Layer_1" xmlns="http://www.w3.org/2000/svg" xmlns:xlink="http://www.w3.org/1999/xlink" x="0px" y="0px"
	 viewBox="0 0 64 64" style="enable-background:new 0 0 64 64;" xml:space="preserve">
<style type="text/css">
	.st0{fill:#FFFFFF;}
</style>
<g>
	<path class="st0" d="M32.2,11.9c-10.7,0-19.3,8.7-19.3,19.3c0,8.5,5.5,15.7,13.2,18.3v3.4c0,0.8,0.6,1.4,1.4,1.4h9.1
		c0.8,0,1.4-0.6,1.4-1.4v-3.3c7.9-2.4,13.6-9.8,13.6-18.5C51.5,20.5,42.9,11.9,32.2,11.9z M36.2,50.5v2h-8.4v-2H36.2z M32.2,48.8
		c-9.7,0-17.6-7.9-17.6-17.6s7.9-17.6,17.6-17.6s17.6,7.9,17.6,17.6S41.9,48.8,32.2,48.8z"/>
	<path class="st0" d="M36.5,57.2h-8.7c-0.5,0-0.9,0.4-0.9,0.9c0,0.5,0.4,0.9,0.9,0.9h8.7c0.5,0,0.9-0.4,0.9-0.9
		C37.4,57.6,37,57.2,36.5,57.2z"/>
	<path class="st0" d="M34.2,61.8h-4.1c-0.5,0-0.9,0.4-0.9,0.9c0,0.5,0.4,0.9,0.9,0.9h4.1c0.5,0,0.9-0.4,0.9-0.9
		C35,62.2,34.7,61.8,34.2,61.8z"/>
	<path class="st0" d="M63.1,29.4h-7c-0.5,0-0.9,0.4-0.9,0.9s0.4,0.9,0.9,0.9h7c0.5,0,0.9-0.4,0.9-0.9S63.6,29.4,63.1,29.4z"/>
	<path class="st0" d="M7.5,29.1H0.9C0.4,29.1,0,29.5,0,30s0.4,0.9,0.9,0.9h6.7c0.5,0,0.9-0.4,0.9-0.9S8,29.1,7.5,29.1z"/>
	<path class="st0" d="M14.7,16.4c0.2,0.2,0.4,0.3,0.6,0.3s0.4-0.1,0.6-0.3c0.3-0.3,0.3-0.9,0-1.2L8.7,7.9c-0.3-0.3-0.9-0.3-1.2,0
		c-0.3,0.3-0.3,0.9,0,1.2L14.7,16.4z"/>
	<path class="st0" d="M32.1,8.8C32.6,8.8,33,8.4,33,8V1.3c0-0.5-0.4-0.9-0.9-0.9c-0.5,0-0.9,0.4-0.9,0.9V8
		C31.3,8.4,31.7,8.8,32.1,8.8z"/>
	<path class="st0" d="M48.9,16.7c0.2,0,0.4-0.1,0.6-0.3l7.2-7.2c0.3-0.3,0.3-0.9,0-1.2c-0.3-0.3-0.9-0.3-1.2,0l-7.2,7.2
		c-0.3,0.3-0.3,0.9,0,1.2C48.5,16.6,48.7,16.7,48.9,16.7z"/>
</g>
</svg>
