<?xml version="1.0" encoding="utf-8"?>
<!-- Generator: Adobe Illustrator 22.0.1, SVG Export Plug-In . SVG Version: 6.00 Build 0)  -->
<svg version="1.1" id="Layer_1" xmlns="http://www.w3.org/2000/svg" xmlns:xlink="http://www.w3.org/1999/xlink" x="0px" y="0px"
	 viewBox="0 0 64 65" style="enable-background:new 0 0 64 65;" xml:space="preserve">
<style type="text/css">
	.st0{fill:#FFFFFF;}
</style>
<g>
	<path class="st0" d="M59.8,0.4H4.2C1.9,0.4,0,2.2,0,4.5v55.9c0,2.3,1.9,4.2,4.2,4.2h55.7c2.3,0,4.2-1.9,4.2-4.2V4.5
		C64,2.2,62.1,0.4,59.8,0.4z M62.2,60.5c0,1.3-1.1,2.4-2.4,2.4H4.2c-1.3,0-2.4-1.1-2.4-2.4V4.5c0-1.3,1.1-2.4,2.4-2.4h55.7
		c1.3,0,2.4,1.1,2.4,2.4V60.5z"/>
	<path class="st0" d="M59.7,32H32.6V4.7c0-0.5-0.4-0.9-0.9-0.9c-0.5,0-0.9,0.4-0.9,0.9V32H3.8c-0.5,0-0.9,0.4-0.9,0.9
		s0.4,0.9,0.9,0.9h27.1v27.1c0,0.5,0.4,0.9,0.9,0.9c0.5,0,0.9-0.4,0.9-0.9V33.8h27.1c0.5,0,0.9-0.4,0.9-0.9S60.2,32,59.7,32z"/>
	<path class="st0" d="M36.5,17.9h21.7c0.5,0,0.9-0.4,0.9-0.9c0-0.5-0.4-0.9-0.9-0.9H36.5c-0.5,0-0.9,0.4-0.9,0.9
		C35.7,17.5,36,17.9,36.5,17.9z"/>
	<path class="st0" d="M58.2,47.1H37c-0.5,0-0.9,0.4-0.9,0.9s0.4,0.9,0.9,0.9h21.2c0.5,0,0.9-0.4,0.9-0.9S58.7,47.1,58.2,47.1z"/>
	<circle class="st0" cx="47.4" cy="43.2" r="2"/>
	<circle class="st0" cx="47.5" cy="53.2" r="2"/>
	<path class="st0" d="M5.8,17.9h9.6v9.8c0,0.5,0.4,0.9,0.9,0.9s0.9-0.4,0.9-0.9v-9.8h9.6c0.5,0,0.9-0.4,0.9-0.9
		c0-0.5-0.4-0.9-0.9-0.9h-9.6V6c0-0.5-0.4-0.9-0.9-0.9S15.4,5.6,15.4,6v10.1H5.8c-0.5,0-0.9,0.4-0.9,0.9C4.9,17.5,5.3,17.9,5.8,17.9
		z"/>
	<path class="st0" d="M17.6,48.2l6.7-6.9c0.3-0.4,0.3-0.9,0-1.2c-0.4-0.3-0.9-0.3-1.2,0L16.4,47l-6.9-6.9c-0.3-0.3-0.9-0.3-1.2,0
		c-0.3,0.3-0.3,0.9,0,1.2l6.9,6.9l-7,7.2c-0.3,0.4-0.3,0.9,0,1.2c0.2,0.2,0.4,0.2,0.6,0.2c0.2,0,0.5-0.1,0.6-0.3l6.9-7.2l7.2,7.2
		c0.2,0.2,0.4,0.3,0.6,0.3s0.5-0.1,0.6-0.3c0.3-0.3,0.3-0.9,0-1.2L17.6,48.2z"/>
</g>
</svg>
