<?xml version="1.0" encoding="utf-8"?>
<!-- Generator: Adobe Illustrator 22.0.1, SVG Export Plug-In . SVG Version: 6.00 Build 0)  -->
<svg version="1.1" id="Layer_1" xmlns="http://www.w3.org/2000/svg" xmlns:xlink="http://www.w3.org/1999/xlink" x="0px" y="0px"
	 viewBox="0 0 128 128" style="enable-background:new 0 0 128 128;" xml:space="preserve">
<style type="text/css">
	.st0{fill:#44BCCE;}
</style>
<g>
	<path class="st0" d="M64,128C28.5,128,0,99.2,0,64C0,28.5,28.5,0,64,0c35.2,0,64,28.5,64,64C128,99.2,99.2,128,64,128z M64,2.4
		C30,2.4,2.4,30,2.4,64S30,125.6,64,125.6S125.6,98,125.6,64S98,2.4,64,2.4z"/>
	<g>
		<path class="st0" d="M68.8,105.8c-1.5,0-3,0.3-3,3.6c0,3.3,1.5,3.6,3,3.6c1.5,0,3-0.3,3-3.6C71.8,106.1,70.3,105.8,68.8,105.8z"/>
		<path class="st0" d="M58.3,105.8c-1.5,0-3,0.3-3,3.6c0,3.3,1.5,3.6,3,3.6s3-0.3,3-3.6C61.3,106.1,60.1,105.8,58.3,105.8z"/>
		<path class="st0" d="M64,6.9C32.5,6.9,6.9,32.5,6.9,64s25.5,57.1,57.1,57.1s57.1-25.5,57.1-57.1S95.5,6.9,64,6.9z M31.2,80.2
			c-2.4-3.6-3.6-7.8-3.6-12.3c0-3.6,0.9-7.5,2.4-11.1c3.6-8.4,11.4-16.2,21-20.4l1.5-0.6l0.6,5.7l-0.6,0.3
			c-6,3.3-10.2,8.4-12.3,13.8c-0.6,2.1-0.9,4.2-0.9,6c0,3.3,0.9,6.6,3,9.3c3,4.2,7.8,6.9,13.8,7.5h0.9l1.2,11.7l0.3,1.2h-3.3
			C44.5,91.3,36.1,87.4,31.2,80.2z M52,112.7v0.9h-6.9v-2.4c0-1.8,0.9-2.7,2.4-2.7h2.1c0.3,0,0.6-0.3,0.9-0.3
			c0.3-0.3,0.3-0.6,0.3-0.9c0-0.6-0.3-1.5-1.2-1.5h-4.5v-0.9h4.5c1.5,0,2.4,1.2,2.4,2.4c0,1.2-0.9,2.4-2.4,2.4h-2.1
			c-1.2,0-1.5,0.6-1.5,1.5v1.5H52z M58.3,113.9c-1.8,0-4.2-0.6-4.2-4.5c0-3.9,2.1-4.5,4.2-4.5c1.8,0,4.2,0.6,4.2,4.5
			C62.5,113.3,60.1,113.9,58.3,113.9z M59.5,39.4L58.3,34l29.4-7.5l2.1-0.6l-3.6,9.6L76,41.8L59.5,39.4z M68.8,113.9
			c-1.8,0-4.2-0.6-4.2-4.5c0-3.9,2.1-4.5,4.2-4.5c1.8,0,4.2,0.6,4.2,4.5C73,113.3,70.6,113.9,68.8,113.9z M79,113.9h-3.6V113H79
			c2.1,0,2.7-1.2,2.7-2.7h-3.6c-2.4,0-2.7-1.5-2.7-2.7c0-0.9,0.6-2.7,3.9-2.7c2.7,0,3.9,1.5,3.9,4.5C82.9,112.4,81.7,113.9,79,113.9
			z M93.4,56.8c0,12-8.4,23.7-21.3,30.3l-1.5,0.6l-2.7-11.4l0.9-0.3c6.3-3,11.1-8.4,13.2-14.1v-0.3l9.3-5.7l1.8-1.2v2.1H93.4z"/>
		<path class="st0" d="M79,105.8c-2.7,0-2.7,1.2-2.7,1.5c0,0.9,0.3,1.5,1.8,1.5H82C81.7,107,81.4,105.8,79,105.8z"/>
	</g>
</g>
</svg>
