<?xml version="1.0" encoding="utf-8"?>
<!-- Generator: Adobe Illustrator 22.0.1, SVG Export Plug-In . SVG Version: 6.00 Build 0)  -->
<svg version="1.1" id="Layer_1" xmlns="http://www.w3.org/2000/svg" xmlns:xlink="http://www.w3.org/1999/xlink" x="0px" y="0px"
	 viewBox="0 0 252.1 42.6" style="enable-background:new 0 0 252.1 42.6;" xml:space="preserve">
<style type="text/css">
	.st0{fill:#FFFFFF;}
</style>
<g>
	<g>
		<g>
			<polygon class="st0" points="216.4,6.4 214.6,6.4 214.6,25.5 229.8,25.5 229.8,23.8 216.4,23.8 			"/>
			<path class="st0" d="M136.9,25.7c-4.2,0-7.6-3.2-7.6-7.1v-5.4c0-3.9,3.4-7.1,7.6-7.1c4.2,0,7.6,3.2,7.6,7.1v5.4
				C144.5,22.6,141.1,25.7,136.9,25.7z M136.9,8c-3.2,0-5.8,2.4-5.8,5.3v5.4c0,2.9,2.6,5.3,5.8,5.3s5.8-2.4,5.8-5.3v-5.4
				C142.7,10.4,140.1,8,136.9,8z"/>
			<path class="st0" d="M246.4,8.1h5.6V6.4h-5.6c-5,0-9.1,3.8-9.5,8.7h-2.2v1.7h2.2c0.4,4.9,4.5,8.7,9.5,8.7h5.6v-1.7h-5.6
				c-4,0-7.4-3-7.8-7h11.9v-1.7h-11.9C239,11.1,242.4,8.1,246.4,8.1z"/>
			<path class="st0" d="M116,16.8L116,16.8L116,16.8c1.8-0.3,3.3-1.5,4-3.1c0.3-0.7,0.5-1.4,0.5-2.1c0-0.8-0.2-1.5-0.5-2.2
				c-0.6-1.4-1.9-2.5-3.3-2.9c-0.2,0-0.3-0.1-0.5-0.1h-0.1c-0.3,0-0.5-0.1-0.8-0.1h-0.1l0,0h-9.9v8.8H103v1.8h2.2v8.6h1.8v-8.6h7
				c0.3,0.5,1.5,2.5,4.9,8.4l0.2,0.3l1.6-0.8L116,16.8z M107,8.1h8.2h0.1c1.9,0,3.5,1.6,3.5,3.5c0,0,0,0,0,0.1c0,0.2,0,0.4-0.1,0.6
				l0,0c-0.3,1.6-1.7,2.8-3.4,2.8h-0.1l0,0H107V8.1z"/>
			<rect x="178.9" y="6.4" class="st0" width="1.8" height="19.2"/>
			<polygon class="st0" points="93.1,6.4 93.1,15.1 81.7,15.1 81.7,6.4 80,6.4 80,15.1 77.3,15.1 77.3,16.8 80,16.8 80,25.5 
				81.7,25.5 81.7,16.8 93.1,16.8 93.1,25.5 94.9,25.5 94.9,6.4 			"/>
			<path class="st0" d="M69.8,25.5h-5.7c-5.3,0-9.6-4.3-9.6-9.6s4.3-9.6,9.6-9.6h5.7V8h-5.7c-4.3,0-7.8,3.5-7.8,7.8s3.5,7.8,7.8,7.8
				h5.7V25.5z"/>
			<path class="st0" d="M205.1,25.5h-5.7c-5.3,0-9.6-4.3-9.6-9.6s4.3-9.6,9.6-9.6h5.7V8h-5.7c-4.3,0-7.8,3.5-7.8,7.8
				s3.5,7.8,7.8,7.8h5.7V25.5z"/>
			<polygon class="st0" points="169.1,25.5 169.1,6.4 167.3,6.4 167.3,22.8 155.6,6.4 153.7,6.4 153.7,25.5 155.4,25.5 155.4,9.1 
				167.1,25.5 			"/>
		</g>
		<g>
			<path class="st0" d="M135.5,33.7h2.8v-0.8h-2.8c-2.4,0-4.4,1.9-4.7,4.3h-1.1V38h1.1c0.2,2.4,2.2,4.3,4.7,4.3h2.8v-0.8h-2.8
				c-2,0-3.6-1.5-3.8-3.4h5.8v-0.8h-5.8C131.8,35.2,133.5,33.7,135.5,33.7z"/>
			<path class="st0" d="M124.3,37.9L124.3,37.9L124.3,37.9c0.9-0.2,1.6-0.7,2-1.5c0.1-0.3,0.2-0.7,0.2-1.1c0-0.4-0.1-0.7-0.2-1.1
				c-0.3-0.7-0.9-1.2-1.6-1.4c-0.1,0-0.2,0-0.2-0.1c0,0,0,0-0.1,0s-0.3,0-0.4,0l0,0l0,0h-5V37h-1.1v1h1.1v4.2h0.9V38h3.4
				c0.2,0.3,0.7,1.2,2.4,4.1l0.1,0.2l0.8-0.4L124.3,37.9z M119.9,33.7h4l0,0c0.9,0,1.7,0.8,1.7,1.7l0,0c0,0.1,0,0.2,0,0.3l0,0
				c-0.2,0.8-0.8,1.4-1.7,1.4l0,0l0,0h-4V33.7z"/>
			<path class="st0" d="M172.4,37.9L172.4,37.9L172.4,37.9c0.9-0.2,1.6-0.7,2-1.5c0.1-0.3,0.2-0.7,0.2-1.1c0-0.4-0.1-0.7-0.2-1.1
				c-0.3-0.7-0.9-1.2-1.6-1.4c-0.1,0-0.2,0-0.2-0.1c0,0,0,0-0.1,0s-0.3,0-0.4,0l0,0l0,0h-4.9V37H166v1h1.1v4.2h0.9V38h3.4
				c0.2,0.3,0.7,1.2,2.4,4.1l0.1,0.2l0.8-0.4L172.4,37.9z M168,33.7h4l0,0c0.9,0,1.7,0.8,1.7,1.7l0,0c0,0.1,0,0.2,0,0.3l0,0
				c-0.2,0.8-0.8,1.4-1.7,1.4l0,0l0,0h-4V33.7z"/>
			<path class="st0" d="M157.9,42.3c-2.1,0-3.7-1.6-3.7-3.5v-2.6c0-1.9,1.7-3.5,3.7-3.5c2.1,0,3.7,1.6,3.7,3.5v2.6
				C161.6,40.7,159.9,42.3,157.9,42.3z M157.9,33.6c-1.6,0-2.8,1.2-2.8,2.6v2.6c0,1.4,1.3,2.6,2.8,2.6c1.6,0,2.8-1.2,2.8-2.6v-2.6
				C160.7,34.8,159.4,33.6,157.9,33.6z"/>
			<polygon class="st0" points="187.8,32.8 184.2,39.3 180.6,32.8 179.7,32.8 179.7,42.2 180.5,42.2 180.5,34.5 183.8,40.4 
				184.6,40.4 187.8,34.5 187.8,42.2 188.7,42.2 188.7,32.8 			"/>
			<path class="st0" d="M143,37.1h-1V38h1v4.3h0.9V38h5.9v-0.9H144c0.2-1.9,1.8-3.4,3.8-3.4h2.8v-0.9h-2.8
				C145.2,32.8,143.2,34.7,143,37.1z"/>
		</g>
	</g>
	<g>
		<path class="st0" d="M21.3,42.6C9.5,42.6,0,33,0,21.3C0,9.5,9.5,0,21.3,0C33,0,42.6,9.5,42.6,21.3C42.6,33,33,42.6,21.3,42.6z
			 M21.3,0.8C10,0.8,0.8,10,0.8,21.3S10,41.8,21.3,41.8s20.5-9.2,20.5-20.5S32.6,0.8,21.3,0.8z"/>
		<g>
			<path class="st0" d="M22.9,35.2c-0.5,0-1,0.1-1,1.2c0,1.1,0.5,1.2,1,1.2s1-0.1,1-1.2S23.4,35.2,22.9,35.2z"/>
			<path class="st0" d="M19.4,35.2c-0.5,0-1,0.1-1,1.2c0,1.1,0.5,1.2,1,1.2s1-0.1,1-1.2S20,35.2,19.4,35.2z"/>
			<path class="st0" d="M21.3,2.3c-10.5,0-19,8.5-19,19s8.5,19,19,19s19-8.5,19-19S31.8,2.3,21.3,2.3z M10.4,26.7
				c-0.8-1.2-1.2-2.6-1.2-4.1c0-1.2,0.3-2.5,0.8-3.7c1.2-2.8,3.8-5.4,7-6.8l0.5-0.2l0.2,1.9l-0.2,0.1c-2,1.1-3.4,2.8-4.1,4.6
				c-0.2,0.7-0.3,1.4-0.3,2c0,1.1,0.3,2.2,1,3.1c1,1.4,2.6,2.3,4.6,2.5H19l0.4,3.9l0.1,0.4h-1.1C14.8,30.4,12,29.1,10.4,26.7z
				 M17.3,37.5v0.3H15V37c0-0.6,0.3-0.9,0.8-0.9h0.7c0.1,0,0.2-0.1,0.3-0.1c0.1-0.1,0.1-0.2,0.1-0.3c0-0.2-0.1-0.5-0.4-0.5H15v-0.3
				h1.5c0.5,0,0.8,0.4,0.8,0.8c0,0.4-0.3,0.8-0.8,0.8h-0.7c-0.4,0-0.5,0.2-0.5,0.5v0.5H17.3z M19.4,37.9c-0.6,0-1.4-0.2-1.4-1.5
				s0.7-1.5,1.4-1.5c0.6,0,1.4,0.2,1.4,1.5S20,37.9,19.4,37.9z M19.8,13.1l-0.4-1.8l9.8-2.5l0.7-0.2l-1.2,3.2l-3.4,2.1L19.8,13.1z
				 M22.9,37.9c-0.6,0-1.4-0.2-1.4-1.5s0.7-1.5,1.4-1.5c0.6,0,1.4,0.2,1.4,1.5S23.5,37.9,22.9,37.9z M26.3,37.9h-1.2v-0.3h1.2
				c0.7,0,0.9-0.4,0.9-0.9H26c-0.8,0-0.9-0.5-0.9-0.9c0-0.3,0.2-0.9,1.3-0.9c0.9,0,1.3,0.5,1.3,1.5C27.6,37.4,27.2,37.9,26.3,37.9z
				 M31.1,18.9c0,4-2.8,7.9-7.1,10.1l-0.5,0.2l-0.9-3.8l0.3-0.1c2.1-1,3.7-2.8,4.4-4.7v-0.1l3.1-1.9l0.6-0.4v0.7H31.1z"/>
			<path class="st0" d="M26.3,35.2c-0.9,0-0.9,0.4-0.9,0.5c0,0.3,0.1,0.5,0.6,0.5h1.3C27.2,35.6,27.1,35.2,26.3,35.2z"/>
		</g>
	</g>
</g>
</svg>
